<svg viewBox="0 0 500 500" xmlns="http://www.w3.org/2000/svg" xmlns:xlink="http://www.w3.org/1999/xlink" overflow="hidden"><g id="freepik--background-complete--inject-199"><rect x="458.26" y="40.85" width="8.5" height="182.79" fill="#E0E0E0"/><rect x="334.94" y="42.26" rx="0.12" width="122.03" height="181.63" fill="#F5F5F5"/><path d="M458.26 225.3 333.65 225.3C333.584 225.3 333.53 225.246 333.53 225.18L333.53 41C333.53 40.9337 333.584 40.88 333.65 40.88L458.26 40.88C458.326 40.8745 458.384 40.9235 458.39 40.9896 458.39 40.993 458.39 40.9965 458.39 41L458.39 225.18C458.39 225.246 458.337 225.3 458.27 225.3 458.267 225.3 458.263 225.3 458.26 225.3ZM336.48 222.48 455.48 222.48C455.548 222.475 455.6 222.418 455.6 222.35L455.6 43.8C455.6 43.7337 455.546 43.68 455.48 43.68L336.48 43.68C336.414 43.68 336.36 43.7337 336.36 43.8L336.36 222.35C336.354 222.416 336.404 222.474 336.47 222.48 336.473 222.48 336.477 222.48 336.48 222.48Z" fill="#EBEBEB"/><rect x="347.23" y="53.47" rx="0.12" width="97.67" height="159.1" fill="#FFFFFF"/><rect x="368.54" y="98.57" rx="0.06" width="54.84" height="64.28" fill="#EBEBEB"/><path d="M419 155C419.07 155.21 416.36 156.39 411.21 155.79 408.046 155.377 405.036 154.173 402.46 152.29 398.953 149.687 396.531 145.88 395.66 141.6 394.645 136.144 396.647 130.565 400.9 127 402.077 126.018 403.408 125.238 404.84 124.69 406.418 124.11 408.112 123.918 409.78 124.13 411.61 124.305 413.337 125.058 414.71 126.28 416.277 127.752 417.005 129.91 416.65 132.03 416.276 133.911 415.333 135.632 413.95 136.96 412.722 138.154 411.327 139.165 409.81 139.96 406.785 141.64 403.416 142.605 399.96 142.78 396.306 142.978 392.669 142.15 389.46 140.39 386.145 138.551 383.454 135.766 381.73 132.39 379.939 128.937 379.446 124.956 380.34 121.17 381.212 117.512 383.295 114.256 386.25 111.93 387.741 110.781 389.438 109.929 391.25 109.42 393.073 108.939 394.981 108.881 396.83 109.25 398.788 109.62 400.57 110.626 401.9 112.11 403.183 113.621 403.892 115.537 403.9 117.52 403.913 119.326 403.455 121.105 402.57 122.68 401.762 124.109 400.706 125.383 399.45 126.44 397.178 128.346 394.531 129.753 391.68 130.57 389.029 131.342 386.248 131.556 383.51 131.2 380.958 130.852 378.52 129.918 376.39 128.47 372.679 126.032 370.203 122.109 369.6 117.71 369.239 114.428 370.14 111.132 372.12 108.49 373.298 106.846 374.907 105.559 376.77 104.77 378.05 104.28 378.77 104.3 378.77 104.42 378.77 104.54 378.19 104.88 377.16 105.57 375.679 106.585 374.44 107.913 373.53 109.46 372.114 111.827 371.589 114.621 372.05 117.34 372.778 120.875 374.954 123.944 378.05 125.8 381.833 128.022 386.403 128.461 390.54 127 392.84 126.265 394.965 125.063 396.78 123.47 398.57 122.053 399.636 119.912 399.69 117.63 399.677 115.494 398.063 113.709 395.94 113.48 394.746 113.267 393.519 113.326 392.35 113.65 391.123 114.023 389.976 114.624 388.97 115.42 386.829 117.148 385.326 119.541 384.7 122.22 384.073 124.975 384.445 127.864 385.75 130.37 387.07 132.95 389.123 135.082 391.65 136.5 394.128 137.873 396.94 138.528 399.77 138.39 402.568 138.28 405.303 137.535 407.77 136.21 408.934 135.615 410.008 134.857 410.96 133.96 411.747 133.262 412.311 132.347 412.58 131.33 412.734 130.557 412.486 129.759 411.92 129.21 411.181 128.56 410.259 128.155 409.28 128.05 408.237 127.893 407.172 127.982 406.17 128.31 405.125 128.676 404.149 129.214 403.28 129.9 399.941 132.554 398.253 136.775 398.84 141 399.428 144.61 401.282 147.892 404.07 150.26 406.251 152.071 408.821 153.354 411.58 154.01 416.22 155.13 419 154.59 419 155Z" fill="#E0E0E0"/><rect x="52.35" y="40.06" width="145.35" height="261.11" fill="#EBEBEB"/><rect x="58.16" y="47.63" width="132.23" height="245.76" fill="#FAFAFA"/><path d="M203.84 303.52 197.7 301.16 197.7 35.63 203.84 35.63 203.84 303.52Z" fill="#E0E0E0"/><rect x="58.16" y="118.32" width="135.11" height="2.62" fill="#E0E0E0"/><rect x="58.16" y="176.85" width="135.11" height="2.62" fill="#E0E0E0"/><rect x="58.16" y="235.37" width="135.11" height="2.62" fill="#E0E0E0"/><rect x="33.91" y="206.65" width="180.72" height="6.68" fill="#E0E0E0" transform="matrix(6.12323e-17 -1 1 6.12323e-17 -85.72 334.27)"/><rect x="83.62" y="47.63" width="3.03" height="72.01" fill="#E0E0E0"/><rect x="109.72" y="47.63" width="3.03" height="72.01" fill="#E0E0E0"/><rect x="135.83" y="47.63" width="3.03" height="72.01" fill="#E0E0E0"/><rect x="161.93" y="47.63" width="3.03" height="72.01" fill="#E0E0E0"/><rect x="46.2" y="35.63" width="6.15" height="267.15" fill="#E0E0E0"/><rect x="46.2" y="32.93" width="157.64" height="7.12" fill="#E0E0E0"/><rect x="41.84" y="304.39" width="166.17" height="6.64" fill="#E0E0E0"/><path d="M197.7 301.16 208.01 304.39 41.84 304.39 52.35 301.16 197.7 301.16Z" fill="#EBEBEB"/><rect x="68" y="330.76" width="50.94" height="13.48" fill="#EBEBEB"/><path d="M97.4 358.43C97.4 358.43 97.4 358.34 97.4 358.18 97.4 358.02 97.4 357.78 97.4 357.49 97.4 356.86 97.4 355.97 97.4 354.84 97.4 352.51 97.4 349.17 97.31 344.95L97.47 345.11 46.53 345.21C46.65 345.1 46.27 345.47 46.79 344.95L46.79 344.95 46.79 358.42 46.53 358.16 82.83 358.28 93.55 358.35 96.45 358.35 97.2 358.35 97.47 358.35 97.24 358.35 96.51 358.35 93.67 358.35 83.01 358.43 46.53 358.54 46.28 358.54 46.28 358.29C46.28 356.12 46.28 353.91 46.28 351.66L46.28 345 46.28 345 46.54 344.74 97.48 344.84 97.64 344.84 97.64 345C97.64 349.26 97.57 352.64 97.55 355 97.55 356.12 97.55 357 97.55 357.62 97.55 357.89 97.55 358.11 97.55 358.28 97.5062 358.336 97.4558 358.386 97.4 358.43Z" fill="#E0E0E0"/><rect x="257.48" y="35.8" width="50.94" height="13.48" fill="#EBEBEB"/><path d="M286.89 63.47C286.876 63.3872 286.876 63.3028 286.89 63.22 286.89 63.04 286.89 62.81 286.89 62.53 286.89 61.9 286.89 61.01 286.89 59.88 286.89 57.55 286.84 54.21 286.81 49.99L286.97 50.15 236.03 50.25C236.14 50.13 235.77 50.51 236.28 49.99L236.28 49.99 236.28 63.47 236.02 63.21 272.33 63.33 283 63.4 285.9 63.4 286.66 63.4 286.93 63.4 286.69 63.4 285.96 63.4 283.12 63.4 272.46 63.48 235.98 63.59 235.73 63.59 235.73 56.84C235.73 55.71 235.73 54.58 235.73 53.44L235.73 50 235.73 50C236.25 49.48 235.88 49.86 236 49.74L286.94 49.84 287 49.84 287 50C287 54.26 286.94 57.63 286.92 60 286.92 61.12 286.92 62 286.92 62.62 286.92 62.89 286.92 63.11 286.92 63.28 286.913 63.3438 286.903 63.4073 286.89 63.47Z" fill="#E0E0E0"/><path d="M415.54 335.51C415.532 335.43 415.532 335.35 415.54 335.27 415.54 335.09 415.54 334.86 415.54 334.58 415.54 333.94 415.54 333.06 415.54 331.92 415.54 329.6 415.49 326.25 415.45 322.04L415.61 322.19 364.67 322.3 364.93 322.04 364.93 322.04 364.93 328.86C364.93 331.11 364.93 333.33 364.93 335.49L364.68 335.24 400.98 335.35 411.69 335.43 414.59 335.43 415.35 335.43 415.62 335.43 415.38 335.43 414.66 335.43 411.81 335.43 401.16 335.5 364.68 335.62 364.42 335.62 364.42 322.06 364.42 322.06 364.68 321.8 415.62 321.9 415.78 321.9 415.78 322C415.78 326.25 415.71 329.63 415.69 332 415.69 333.12 415.69 334 415.69 334.62 415.69 334.89 415.69 335.11 415.69 335.28 415.648 335.362 415.598 335.439 415.54 335.51Z" fill="#E0E0E0"/><path d="M422.45 322C422.437 321.914 422.437 321.826 422.45 321.74 422.45 321.55 422.45 321.31 422.45 321.03 422.45 320.36 422.45 319.46 422.4 318.32 422.4 315.96 422.34 312.62 422.3 308.52L422.49 308.71 391.88 308.78C391.65 309.01 392.19 308.46 392.14 308.52L392.14 308.52 392.14 312.02C392.14 313.18 392.14 314.32 392.14 315.45L392.14 322 391.89 321.75 413.78 321.87 420.16 321.94 421.88 321.94 422.5 321.94C422.314 321.954 422.126 321.954 421.94 321.94L420.27 321.94 413.95 322.01 391.89 322.12 391.64 322.12 391.64 322C391.64 319.9 391.64 317.72 391.64 315.46L391.64 308.53 391.64 308.53 391.9 308.27 422.51 308.34 422.69 308.34 422.69 308.53C422.69 312.68 422.62 316.06 422.59 318.45 422.59 319.57 422.59 320.45 422.59 321.11 422.59 321.77 422.46 322.05 422.45 322Z" fill="#E0E0E0"/><path d="M331.53 438.86C331.523 438.777 331.523 438.693 331.53 438.61 331.53 438.43 331.53 438.2 331.53 437.92 331.53 437.29 331.53 436.4 331.53 435.27 331.53 432.94 331.53 429.6 331.44 425.38L331.6 425.54 280.66 425.64C280.77 425.52 280.4 425.9 280.91 425.38L280.91 425.38 280.91 438.84 280.66 438.58 316.96 438.7 327.67 438.77 330.57 438.77 331.33 438.77C331.419 438.757 331.51 438.757 331.6 438.77L331.36 438.77 330.63 438.77 327.79 438.77 317.13 438.84 280.66 438.96 280.4 438.96 280.4 425.4 280.4 425.4 280.66 425.14 331.6 425.24 331.76 425.24 331.76 425.4C331.76 429.66 331.7 433.03 331.68 435.4 331.68 436.52 331.68 437.4 331.68 438.02 331.68 438.29 331.68 438.51 331.68 438.68 331.634 438.743 331.584 438.803 331.53 438.86Z" fill="#E0E0E0"/><path d="M338.43 425.38C338.43 425.38 338.43 425.29 338.43 425.12 338.43 424.95 338.43 424.69 338.43 424.41 338.43 423.75 338.43 422.84 338.43 421.71 338.43 419.34 338.37 416.01 338.33 411.9L338.51 412.09 307.91 412.16C307.67 412.39 308.22 411.85 308.17 411.9L308.17 411.9 308.17 418.83C308.17 421.09 308.17 423.27 308.17 425.37L307.93 425.12 329.82 425.24 336.2 425.31 337.92 425.31 338.53 425.31C338.347 425.324 338.163 425.324 337.98 425.31L336.31 425.31 329.99 425.38 307.93 425.5 307.68 425.5 307.68 425.25C307.68 423.15 307.68 420.97 307.68 418.71L307.68 411.78 307.68 411.78 307.94 411.52 338.54 411.6 338.73 411.6 338.73 411.78C338.73 415.93 338.65 419.31 338.63 421.7 338.63 422.82 338.63 423.7 338.63 424.36 338.596 424.706 338.529 425.047 338.43 425.38Z" fill="#E0E0E0"/><path d="M395.18 429.55C395.18 429.55 389 386.87 389.49 362 389.98 337.13 389.49 309.23 389.49 309.23L392.35 309.23C392.35 309.23 390.41 358.53 392.52 388.23 394.63 417.93 400.18 429.5 400.18 429.5L395.18 429.5" fill="#E0E0E0"/><path d="M413.67 261.24C413.228 259.724 412.314 258.39 411.06 257.43 409.25 256.28 406.87 256.75 404.85 257.43 396.2 260.49 388.54 276.6 385.05 285.08L396.52 323.75C417.23 304.57 420.82 279.36 413.67 261.24Z" fill="#E0E0E0"/><path d="M410.39 259C410.361 259.174 410.307 259.342 410.23 259.5 410.08 259.87 409.89 260.34 409.67 260.91 409.16 262.13 408.46 263.91 407.61 266.1 405.92 270.49 403.77 276.63 401.85 283.54 399.93 290.45 398.61 296.83 397.8 301.47 397.39 303.78 397.08 305.66 396.88 306.96 396.78 307.573 396.7 308.073 396.64 308.46 396.787 308.488 396.883 308.629 396.855 308.775 396.828 308.922 396.687 309.018 396.54 308.991 396.393 308.963 396.297 308.822 396.325 308.675 396.345 308.566 396.431 308.481 396.54 308.46 396.54 308.06 396.64 307.56 396.7 306.95 396.84 305.64 397.1 303.75 397.47 301.42 398.441 295.352 399.75 289.343 401.39 283.42 403.039 277.509 405.012 271.694 407.3 266 408.19 263.82 408.94 262.07 409.5 260.87L410.14 259.5C410.202 259.324 410.286 259.156 410.39 259Z" fill="#EBEBEB"/><path d="M391.42 333.06C380.66 327.11 374.33 315.93 373.73 303.66 373.32 295.08 375.96 286.66 378.94 278.6 379.124 277.87 379.555 277.227 380.16 276.78 381.06 276.27 382.16 276.78 383.09 277.24 390.91 281.69 395.64 290.18 398.16 298.81 399.971 304.537 400.574 310.578 399.93 316.55 398.946 322.827 395.962 328.617 391.42 333.06" fill="#EBEBEB"/><path d="M391.42 333.06C391.397 332.887 391.397 332.713 391.42 332.54 391.42 332.15 391.42 331.66 391.42 331.05 391.42 329.77 391.36 327.9 391.26 325.6 390.953 319.612 390.285 313.648 389.26 307.74 388.07 300.82 386.62 294.61 385.55 290.13 385.03 287.94 384.55 286.13 384.28 284.82 384.153 284.24 384.043 283.76 383.95 283.38 383.898 283.211 383.871 283.036 383.87 282.86 383.939 283.019 383.996 283.183 384.04 283.35L384.46 284.78C384.81 286.02 385.3 287.78 385.88 290.05 387.03 294.52 388.53 300.72 389.73 307.66 390.763 313.587 391.384 319.578 391.59 325.59 391.66 327.9 391.66 329.77 391.59 331.06 391.59 331.66 391.59 332.15 391.53 332.54 391.515 332.717 391.478 332.892 391.42 333.06Z" fill="#E0E0E0"/><path d="M403.56 398.36C414.14 400.69 422.86 408.15 433.07 411.78 439.83 414.19 447.47 415.04 452.87 419.78 451.57 416.51 448.5 414.34 445.52 412.47 437.111 407.222 428.138 402.938 418.77 399.7 413.96 398.04 408.77 396.7 403.85 398.02" fill="#EBEBEB"/><path d="M388.25 407.79C374.99 407.58 361.03 396.29 347.84 395.62 361.65 391.16 381.42 394.8 388.25 407.79" fill="#EBEBEB"/><path d="M393.43 376C400.16 373.57 407.55 373.46 414.63 374.56 421.71 375.66 428.53 377.92 435.32 380.18 434.64 375.58 430.91 372.12 427.41 369.06 424.847 366.674 422.064 364.535 419.1 362.67 416.101 360.804 412.632 359.829 409.1 359.86 404.832 360.142 400.862 362.145 398.1 365.41 395.439 368.342 393.8 372.058 393.43 376" fill="#EBEBEB"/><path d="M366.22 361.35C357.88 354.23 345.22 354.92 334.22 355.17 351.847 363.571 368.471 373.929 383.78 386.05 384.27 378.3 376.76 370.35 366.22 361.35Z" fill="#455A64"/><path d="M366.22 361.35C357.88 354.23 345.22 354.92 334.22 355.17 351.847 363.571 368.471 373.929 383.78 386.05 384.27 378.3 376.76 370.35 366.22 361.35Z" fill="#EBEBEB"/><path d="M397.18 351.52C401.247 348.694 405.534 346.199 410 344.06 414.39 342.06 418.49 338.88 422.73 336.58 428.23 333.58 433 329.46 438.05 325.77 443.1 322.08 448.64 318.77 454.82 317.77 449.735 316.861 444.507 317.162 439.56 318.65 434.631 320.133 429.826 322.002 425.19 324.24 418.68 327.17 412.05 330.18 406.73 334.94 401.41 339.7 396.6 344.4 397.16 351.52" fill="#EBEBEB"/><path d="M432.83 407.79C432.83 407.79 432.68 407.74 432.41 407.61L431.25 407.01C430.25 406.48 428.82 405.69 427.02 404.79 426.12 404.31 425.13 403.79 424.02 403.32 422.91 402.85 421.8 402.27 420.58 401.74 417.943 400.557 415.21 399.604 412.41 398.89 409.636 398.13 406.718 398.058 403.91 398.68 402.679 398.942 401.472 399.303 400.3 399.76 399.291 400.169 398.32 400.668 397.4 401.25 396.057 402.089 394.827 403.098 393.74 404.25 392.97 405.07 392.6 405.58 392.56 405.55 392.624 405.411 392.705 405.28 392.8 405.16 392.97 404.91 393.24 404.56 393.6 404.16 394.649 402.937 395.864 401.867 397.21 400.98 398.144 400.365 399.131 399.836 400.16 399.4 401.343 398.923 402.564 398.545 403.81 398.27 406.682 397.599 409.676 397.657 412.52 398.44 415.345 399.161 418.1 400.135 420.75 401.35 421.98 401.89 423.13 402.43 424.19 402.98 425.25 403.53 426.25 403.98 427.13 404.5 428.92 405.45 430.33 406.28 431.3 406.86L432.42 407.54C432.567 407.606 432.704 407.69 432.83 407.79Z" fill="#E0E0E0"/><path d="M378.36 401.22C378.647 401.264 378.927 401.348 379.19 401.47 379.93 401.73 380.652 402.041 381.35 402.4 383.672 403.582 385.808 405.098 387.69 406.9 389.566 408.704 391.164 410.776 392.43 413.05 392.809 413.734 393.143 414.442 393.43 415.17 393.564 415.428 393.659 415.704 393.71 415.99 393.63 415.99 393.14 414.9 392.12 413.21 389.459 408.814 385.695 405.191 381.2 402.7 379.47 401.75 378.33 401.3 378.36 401.22Z" fill="#E0E0E0"/><path d="M349 360.69C349.192 360.72 349.381 360.774 349.56 360.85L351.15 361.42 353.66 362.34C354.66 362.71 355.66 363.24 356.9 363.77 363.12 366.648 368.925 370.348 374.16 374.77 377.022 377.225 379.712 379.875 382.21 382.7 384.238 385.011 386.148 387.424 387.93 389.93 389.44 392.08 390.59 393.86 391.37 395.1 391.75 395.68 392.05 396.1 392.28 396.52 392.4 396.675 392.498 396.847 392.57 397.03 392.43 396.895 392.306 396.744 392.2 396.58 391.97 396.27 391.63 395.81 391.2 395.2 390.37 394 389.2 392.2 387.63 390.13 386.06 388.06 384.15 385.58 381.87 382.99 379.37 380.206 376.698 377.581 373.87 375.13 368.66 370.739 362.914 367.026 356.77 364.08 355.58 363.53 354.54 362.97 353.57 362.59L351.1 361.59 349.54 360.94C349.353 360.874 349.172 360.79 349 360.69Z" fill="#E0E0E0"/><path d="M413.32 368.54C412.966 368.533 412.614 368.486 412.27 368.4L411.05 368.18C410.57 368.08 410.05 368.08 409.42 368.02 404.494 367.576 399.628 369.363 396.16 372.89 395.152 373.886 394.259 374.993 393.5 376.19 392.815 377.309 392.204 378.472 391.67 379.67 391.719 379.327 391.81 378.991 391.94 378.67 392.279 377.758 392.704 376.881 393.21 376.05 393.949 374.808 394.836 373.66 395.85 372.63 397.08 371.342 398.512 370.265 400.09 369.44 402.966 367.94 406.229 367.344 409.45 367.73 410 367.777 410.548 367.854 411.09 367.96L412.31 368.26C412.656 368.316 412.994 368.41 413.32 368.54Z" fill="#E0E0E0"/><path d="M426.65 327.2C426.494 327.319 426.326 327.423 426.15 327.51L424.67 328.31C423.38 329.01 421.53 330.03 419.28 331.31 417.03 332.59 414.41 334.31 411.6 336.31 408.538 338.451 405.67 340.857 403.03 343.5 401.661 344.849 400.48 346.376 399.52 348.04 398.65 349.7 397.82 351.32 397.06 352.86 395.682 355.589 394.45 358.39 393.37 361.25 392.654 363.178 392.056 365.149 391.58 367.15 391.24 368.57 391.12 369.37 391.07 369.36 391.076 369.165 391.096 368.972 391.13 368.78 391.13 368.4 391.25 367.83 391.4 367.11 391.809 365.073 392.364 363.068 393.06 361.11 394.096 358.22 395.298 355.392 396.66 352.64 397.42 351.08 398.24 349.47 399.11 347.79 400.089 346.086 401.293 344.522 402.69 343.14 405.348 340.474 408.247 338.061 411.35 335.93 414.18 333.93 416.85 332.31 419.11 331 421.37 329.69 423.27 328.72 424.58 328.08L426.1 327.36C426.277 327.287 426.461 327.233 426.65 327.2Z" fill="#E0E0E0"/><path d="M389.47 367.34C389.346 366.98 389.259 366.608 389.21 366.23 389.05 365.41 388.86 364.38 388.63 363.16 387.391 356.42 385.276 349.872 382.34 343.68L381.04 340.84C380.859 340.501 380.718 340.142 380.62 339.77 380.852 340.081 381.049 340.417 381.21 340.77 381.56 341.41 382.06 342.36 382.64 343.54 384.181 346.62 385.495 349.808 386.57 353.08 387.615 356.349 388.414 359.692 388.96 363.08 389.17 364.39 389.32 365.44 389.39 366.18 389.456 366.563 389.483 366.952 389.47 367.34Z" fill="#E0E0E0"/><path d="M388.51 337.18C388.094 332.16 386.625 327.284 384.2 322.87 377.59 310.569 365.873 301.826 352.2 298.99L381.85 343.18 385.67 351.06C388.27 346.78 388.85 342.19 388.51 337.18Z" fill="#E0E0E0"/><rect x="362.1" y="424.27" width="68.94" height="12.22" fill="#EBEBEB"/><path d="M367.25 434.06 373.12 471.98 418.89 471.98 425.89 434.06 367.25 434.06Z" fill="#EBEBEB"/><path d="M431 436.5C431 436.64 415.45 436.75 396.27 436.75 377.09 436.75 361.54 436.64 361.54 436.5 361.54 436.36 377.09 436.26 396.27 436.26 415.45 436.26 431 436.37 431 436.5Z" fill="#E0E0E0"/><path d="M127.57 408.06C131.62 405.69 136.5 405.16 141.16 405.67 143.67 405.95 146.29 406.56 148.08 408.33 149.87 410.1 150.36 413.33 148.51 415.07 147.307 415.986 145.82 416.45 144.31 416.38 140.69 416.53 136.64 416.11 133.87 418.43 132.29 419.76 131.3 421.89 129.36 422.6 127.363 423.18 125.223 422.364 124.12 420.6 123.086 418.84 122.764 416.75 123.22 414.76 123.545 411.97 125.154 409.492 127.57 408.06Z" fill="#EBEBEB"/><path d="M117.53 398.83C120.26 402.33 125.14 400.83 127.32 398.53 129.5 396.23 130.32 392.92 131.01 389.81 132.65 382.7 134.29 375.24 132.42 368.19 131.939 366.049 130.881 364.081 129.36 362.5 127.796 360.921 125.511 360.292 123.36 360.85 120.9 361.64 119.48 364.16 118.49 366.54 115.556 373.576 114.224 381.176 114.59 388.79 114.77 392.33 115.38 396.02 117.59 398.79" fill="#EBEBEB"/><path d="M110.82 404.42C113.41 400.99 113.68 396.18 112.23 392.14 110.615 388.136 107.93 384.653 104.47 382.07 100.525 378.92 96.0043 376.57 91.16 375.15 89.2786 374.503 87.2795 374.271 85.3 374.47 83.2973 374.692 81.534 375.89 80.59 377.67 79.37 380.34 80.84 383.41 82.38 385.9 85.1032 390.283 88.1659 394.446 91.54 398.35 94.26 401.49 97.34 404.57 101.29 405.84 105.24 407.11 109.29 406.73 111.16 403.93" fill="#EBEBEB"/><path d="M119.81 445C119.908 444.449 119.955 443.89 119.95 443.33 119.95 442.12 120.07 440.61 120.15 438.8 120.255 436.57 120.475 434.347 120.81 432.14 121.267 429.448 121.936 426.797 122.81 424.21 123.663 421.628 124.878 419.18 126.42 416.94 127.676 415.12 129.318 413.601 131.23 412.49 132.53 411.758 133.938 411.235 135.4 410.94 135.953 410.893 136.5 410.786 137.03 410.62 136.473 410.58 135.913 410.6 135.36 410.68 133.836 410.881 132.359 411.351 131 412.07 128.977 413.154 127.234 414.695 125.91 416.57 124.302 418.846 123.039 421.346 122.16 423.99 121.261 426.614 120.591 429.31 120.16 432.05 119.845 434.284 119.671 436.535 119.64 438.79 119.64 440.71 119.64 442.26 119.64 443.33 119.636 443.891 119.693 444.451 119.81 445Z" fill="#E0E0E0"/><path d="M120.39 450.17C120.426 449.915 120.426 449.655 120.39 449.4 120.39 448.82 120.31 448.1 120.27 447.21 120.16 445.31 120.01 442.55 119.93 439.15 119.74 432.35 119.93 425.01 120.52 414.64 121.07 404.88 121.91 393.53 123.04 386.11 123.27 384.43 123.52 382.91 123.76 381.58 124 380.25 124.17 379.09 124.37 378.16 124.57 377.23 124.66 376.57 124.77 376.01 124.827 375.757 124.857 375.499 124.86 375.24 124.758 375.478 124.681 375.726 124.63 375.98 124.49 376.54 124.32 377.24 124.11 378.11 123.9 378.98 123.64 380.18 123.38 381.51 123.12 382.84 122.83 384.35 122.56 386.04 121.142 394.813 120.197 403.656 119.73 412.53 119.15 422.92 119.14 432.35 119.45 439.17 119.59 442.58 119.81 445.33 120 447.23 120.1 448.11 120.18 448.84 120.25 449.41 120.274 449.667 120.321 449.921 120.39 450.17Z" fill="#E0E0E0"/><path d="M119.47 432C119.489 431.234 119.446 430.469 119.34 429.71 119.17 428.25 118.86 426.13 118.34 423.55 117.673 420.533 116.838 417.555 115.84 414.63 114.659 411.028 113.205 407.521 111.49 404.14 108.539 397.893 104.472 392.237 99.49 387.45 98.6298 386.632 97.718 385.871 96.76 385.17 96.34 384.85 95.96 384.53 95.59 384.28L94.59 383.64C93.9542 383.211 93.2854 382.833 92.59 382.51 94.9053 384.132 97.1132 385.903 99.2 387.81 104.03 392.644 107.997 398.268 110.93 404.44 112.615 407.803 114.075 411.274 115.3 414.83 116.46 418.1 117.3 421.11 117.92 423.66 118.54 426.21 118.92 428.3 119.15 429.75 119.208 430.506 119.315 431.258 119.47 432Z" fill="#E0E0E0"/><path d="M102.01 442.07 103.83 467.01 135.87 467.01 137.69 442.07 102.01 442.07Z" fill="#E0E0E0"/><rect x="98.92" y="432.24" width="42.6" height="9.83" fill="#E0E0E0"/><path d="M98.92 466.06 98.92 468.78 100.92 468.78 140.81 468.78 140.81 466.06 98.92 466.06Z" fill="#EBEBEB"/><path d="M102.88 473.58 100.92 468.78 139.29 468.78 137 473.58 102.88 473.58Z" fill="#E0E0E0"/><path d="M137.1 450.22C137.1 450.22 137.1 450.31 136.95 450.45L136.47 451.09 134.6 453.48 134.52 453.58 134.44 453.47 129.85 447.13 130.12 447.13 125.6 453.52 125.46 453.72 125.3 453.53 120 447.16 120.31 447.16 120.01 447.53 115.23 453.53 115.07 453.73 114.92 453.52 110.4 447.13 110.66 447.13 105.1 453.47 105 453.58 104.93 453.46C104.19 452.23 103.61 451.24 103.19 450.53L102.74 449.75C102.681 449.664 102.633 449.569 102.6 449.47 102.671 449.547 102.735 449.631 102.79 449.72L103.28 450.47 105.11 453.34 104.94 453.34 110.41 446.93 110.55 446.76 110.67 446.94 115.23 453.3 114.93 453.3 119.7 447.3 120 446.93 120.15 446.74 120.3 446.93 125.64 453.31 125.34 453.31 129.9 446.95 130.04 446.76 130.17 446.95C131.97 449.53 133.51 451.72 134.66 453.36L134.49 453.36 136.44 451.03 136.96 450.43C136.999 450.355 137.046 450.285 137.1 450.22Z" fill="#F5F5F5"/><path d="M138.14 441.91C138.14 442.02 130.14 442.11 120.21 442.11 110.28 442.11 102.28 442.02 102.28 441.91 102.28 441.8 110.28 441.71 120.21 441.71 130.14 441.71 138.14 441.8 138.14 441.91Z" fill="#F5F5F5"/><path d="M139.76 469.05C139.76 469.16 131.03 469.25 120.27 469.25 109.51 469.25 100.78 469.16 100.78 469.05 100.78 468.94 109.51 468.85 120.27 468.85 131.03 468.85 139.76 468.94 139.76 469.05Z" fill="#F5F5F5"/></g><g id="freepik--Floor--inject-199"><path d="M463.49 472.43C463.49 472.58 367.88 472.69 249.97 472.69 132.06 472.69 36.43 472.58 36.43 472.43 36.43 472.28 132.02 472.17 249.97 472.17 367.92 472.17 463.49 472.29 463.49 472.43Z" fill="#263238"/></g><g id="freepik--Plant--inject-199"><path d="M278.15 331.36C281.478 333.6 284.927 335.657 288.48 337.52 289.88 338.25 291.67 338.93 292.93 337.99 288.16 334.33 283.21 330.44 280.38 325.21 284.04 316.12 290.38 304.99 301.29 298.87 301.29 298.87 301.64 298.69 302.29 298.4 303.612 300.508 304.683 302.763 305.48 305.12 306.76 308.69 307.85 312.39 309.95 315.55 310.65 314.68 310.39 313.42 310.09 312.35L305.71 296.86C310.351 294.84 315.125 293.142 320 291.78L324.44 302.07C325.24 301.28 325.07 299.99 324.92 298.88 324.525 296.154 324.525 293.386 324.92 290.66 327.552 290.124 330.251 290.006 332.92 290.31 340.62 291.45 345.2 294.76 344.76 299.71 340.605 299.332 336.429 299.228 332.26 299.4 336.222 300.537 340.303 301.208 344.42 301.4 343.788 303.303 342.805 305.07 341.52 306.61 339.81 308.77 338.37 310.36 337.02 311.79 330.254 310.166 323.214 310.054 316.4 311.46 318.56 312.84 321.35 312.46 323.92 312.38 327.555 312.307 331.165 313.005 334.51 314.43 331.37 317.76 328.15 321.57 322.43 331.51L319.83 336.01C318.313 336.977 316.575 337.544 314.78 337.66 312.271 337.763 309.76 337.494 307.33 336.86 306.84 336.76 306.16 336.76 306.04 337.24 305.92 337.72 306.62 338.07 307.15 338.14 308.87 338.252 310.578 338.496 312.26 338.87 313.957 339.261 315.447 340.27 316.44 341.7L316.44 341.7C311.62 349.51 306.8 355.7 300.44 358.65 297.893 358.019 295.486 356.92 293.34 355.41 294.126 357.176 295.352 358.712 296.9 359.87 294.634 360.403 292.297 360.561 289.98 360.34 274.53 358.96 274.68 342.82 277.45 333.66 277.64 333 277.89 332.19 278.15 331.36Z" fill="#263238"/><path d="M272 381.65C271.993 381.557 271.993 381.463 272 381.37 272 381.15 272.07 380.89 272.12 380.55 272.25 379.84 272.35 378.77 272.67 377.42 273.62 373.641 274.919 369.959 276.55 366.42 278.974 361.178 281.74 356.1 284.83 351.22 288.28 345.69 292.37 339.8 296.83 333.76 299.07 330.76 301.3 327.83 303.48 325.03 305.66 322.23 307.72 319.52 309.8 317.03 311.729 314.613 313.809 312.322 316.03 310.17L322.17 304.95C325.9 301.73 329.01 299.23 331.25 297.62 332.36 296.81 333.25 296.21 333.86 295.82L334.56 295.38C334.72 295.29 334.8 295.24 334.81 295.25 334.744 295.319 334.67 295.379 334.59 295.43L333.92 295.91C333.33 296.33 332.46 296.91 331.37 297.78 329.17 299.44 326.1 301.98 322.37 305.23L316.28 310.49C314.087 312.637 312.032 314.922 310.13 317.33 308.07 319.85 306.01 322.58 303.84 325.38 301.67 328.18 299.45 331.09 297.21 334.1 292.73 340.1 288.64 346 285.21 351.5 282.109 356.353 279.317 361.396 276.85 366.6 275.203 370.11 273.865 373.758 272.85 377.5 272.5 378.83 272.36 379.89 272.2 380.6 272.13 380.93 272.07 381.19 272.03 381.4 272.031 381.484 272.021 381.568 272 381.65Z" fill="#263238"/><path d="M269.93 357C270 357.05 269.29 358.12 268.46 360 267.392 362.481 266.523 365.042 265.86 367.66 265.06 370.73 264.52 373.55 264.2 375.61 263.88 377.67 263.77 378.94 263.69 378.94 263.652 378.638 263.652 378.332 263.69 378.03 263.69 377.44 263.75 376.6 263.87 375.56 264.184 372.861 264.688 370.188 265.38 367.56 266.048 364.912 266.976 362.336 268.15 359.87 268.511 359.124 268.925 358.406 269.39 357.72 269.7 357.22 269.9 357 269.93 357Z" fill="#263238"/><path d="M291.18 311.18C284.991 314.38 279.469 318.731 274.91 324L278.64 330.12C278.64 330.12 274.31 327.9 272.46 327 269.362 331.055 266.823 335.509 264.91 340.24 265.307 340.658 265.731 341.049 266.18 341.41L269.66 344.33C270.16 344.74 270.66 345.43 270.31 345.94 269.988 346.239 269.533 346.349 269.11 346.23 267.119 346.002 265.164 345.529 263.29 344.82 262.407 347.721 261.772 350.692 261.39 353.7 260.72 359.1 261.06 365.14 264.75 369.12 264.75 369.12 265.25 363.61 275.75 346.78 286.25 329.95 310.66 310.5 310.66 310.5 305.2 306.29 297.29 308.07 291.18 311.18Z" fill="#455A64"/><path d="M271 354.08C269.419 353.991 267.845 353.797 266.29 353.5 264.716 353.371 263.152 353.134 261.61 352.79 264.794 352.609 267.983 353.047 271 354.08Z" fill="#263238"/><path d="M279.45 341.49C277.376 340.665 275.37 339.679 273.45 338.54 271.432 337.558 269.493 336.422 267.65 335.14 269.722 335.966 271.728 336.948 273.65 338.08 275.668 339.065 277.607 340.206 279.45 341.49Z" fill="#263238"/><path d="M279.93 338.16C278.416 337.657 276.964 336.986 275.6 336.16 274.153 335.473 272.782 334.635 271.51 333.66 273.024 334.163 274.476 334.834 275.84 335.66 277.286 336.35 278.656 337.188 279.93 338.16Z" fill="#263238"/><path d="M281.77 322C284.311 324.674 286.591 327.583 288.58 330.69 286.045 328.011 283.765 325.102 281.77 322Z" fill="#263238"/><path d="M287.47 318.23C287.62 318.23 288.17 320.46 289.37 323.05 290.57 325.64 291.93 327.53 291.8 327.63 289.411 325.025 287.897 321.738 287.47 318.23Z" fill="#263238"/><path d="M293.45 318.58C294.09 319.248 294.595 320.032 294.94 320.89 295.427 321.671 295.766 322.536 295.94 323.44 295.304 322.769 294.799 321.986 294.45 321.13 293.966 320.347 293.627 319.483 293.45 318.58Z" fill="#263238"/><path d="M298.81 316.79C298.92 316.72 299.37 317.21 299.65 317.97 299.93 318.73 299.9 319.39 299.76 319.41 299.62 319.43 299.41 318.84 299.16 318.15 298.91 317.46 298.68 316.87 298.81 316.79Z" fill="#263238"/><path d="M242.8 382.54C242.737 382.274 242.7 382.003 242.69 381.73 242.64 381.15 242.58 380.38 242.49 379.41 242.32 377.41 242.02 374.49 241.49 370.92 240.172 361.61 237.581 352.525 233.79 343.92 229.949 335.329 224.563 327.516 217.9 320.87 215.876 318.867 213.725 316.996 211.46 315.27 210.67 314.64 210.01 314.21 209.59 313.88 209.363 313.732 209.149 313.564 208.95 313.38 209.196 313.497 209.431 313.638 209.65 313.8 210.09 314.1 210.77 314.5 211.58 315.11 213.899 316.784 216.098 318.618 218.16 320.6 224.94 327.212 230.404 335.05 234.26 343.7 238.076 352.347 240.633 361.497 241.85 370.87 242.33 374.46 242.57 377.38 242.69 379.4 242.76 380.4 242.77 381.19 242.79 381.73 242.81 382.27 242.81 382.54 242.8 382.54Z" fill="#263238"/><path d="M171.82 271.62C180.82 269.32 183.98 272.7 191.6 274.44 203.6 277.19 215.6 280.34 224.6 286.44 233.6 292.54 239.3 302 236.8 313 235.323 319.387 231.089 324.789 225.24 327.75 221.073 329.655 216.486 330.455 211.92 330.07 200.05 329.34 191.51 323.52 184.32 317.31 177.137 311.129 170.631 304.204 164.91 296.65 162.6 293.58 160.41 290.37 159.73 286.55 159.264 283.756 159.669 280.886 160.89 278.33 162.281 275.805 164.608 273.927 167.37 273.1Z" fill="#263238"/><path d="M251.48 344.72C251.441 344.617 251.417 344.51 251.41 344.4 251.41 344.15 251.32 343.84 251.25 343.4L250.71 339.71C250.23 336.51 249.63 331.86 248.93 326.11 247.52 314.62 245.93 298.7 244.31 281.11 242.69 263.52 241.15 247.6 239.84 236.11 239.18 230.36 238.63 225.71 238.22 222.5 238.03 220.92 237.88 219.68 237.77 218.8L237.67 217.8C237.659 217.69 237.659 217.58 237.67 217.47 237.71 217.576 237.733 217.687 237.74 217.8 237.74 218.04 237.83 218.36 237.9 218.75L238.44 222.44C238.92 225.65 239.52 230.29 240.22 236.04 241.63 247.53 243.22 263.45 244.84 281.04 246.46 298.63 248 314.54 249.31 326.04 249.97 331.79 250.52 336.44 250.93 339.65 251.12 341.23 251.27 342.47 251.38 343.35L251.48 344.35C251.494 344.473 251.494 344.597 251.48 344.72Z" fill="#263238"/><path d="M197.9 84.89C210.06 88.39 212.01 97.2 220.23 106.83 233.23 122.03 245.92 137.92 253.3 156.49 260.68 175.06 262.13 196.93 252.75 214.57 248.16 223.2 240.05 231 230.27 231.16 223.84 231.27 217.77 228.05 212.8 223.97 198.8 212.53 191.86 194.79 186.73 177.5 181.529 159.938 177.651 142.011 175.13 123.87 174.13 116.39 173.3 108.75 174.68 101.33 175.547 96.3001 177.658 91.5667 180.82 87.56 183.463 84.387 187.628 82.9105 191.68 83.71Z" fill="#455A64"/><path d="M187.57 93.61C187.57 93.61 187.64 93.72 187.75 93.93 187.86 94.14 188.04 94.5 188.25 94.93L190.12 98.68C191.74 101.94 194.03 106.68 196.79 112.57 202.32 124.34 209.63 140.77 217.03 159.19 224.43 177.61 230.48 194.55 234.63 206.88 236.7 213.05 238.33 218.05 239.41 221.53 239.94 223.24 240.41 224.58 240.65 225.53L240.96 226.53 241.05 226.89C240.987 226.784 240.94 226.67 240.91 226.55L240.55 225.55C240.23 224.61 239.79 223.28 239.22 221.55 238.08 218.09 236.4 213.11 234.28 206.96 230.05 194.67 223.93 177.77 216.54 159.35 209.15 140.93 201.89 124.5 196.45 112.68 193.74 106.78 191.51 102.01 189.94 98.68L188.16 95C187.97 94.58 187.82 94.25 187.7 94 187.637 93.8775 187.593 93.7459 187.57 93.61Z" fill="#263238"/><path d="M254.5 377C254.467 376.879 254.444 376.755 254.43 376.63 254.43 376.36 254.34 375.99 254.28 375.54 254.15 374.54 253.97 373.13 253.74 371.33 253.51 369.53 253.24 367.27 252.99 364.66 252.74 362.05 252.39 359.1 252.13 355.82 251.87 352.54 251.54 348.95 251.3 345.08 251.06 341.21 250.83 337.08 250.62 332.74 250.26 324.05 250.06 314.48 250.14 304.43 250.22 294.38 250.66 284.81 251.19 276.12 251.5 271.78 251.76 267.65 252.13 263.8 252.5 259.95 252.82 256.35 253.13 253.08 253.44 249.81 253.85 246.85 254.13 244.25 254.41 241.65 254.75 239.43 255.02 237.61 255.29 235.79 255.49 234.4 255.64 233.41 255.71 232.96 255.77 232.6 255.81 232.32 255.864 232.208 255.928 232.101 256 232 256.011 232.123 256.011 232.247 256 232.37 256 232.64 255.93 233.01 255.87 233.47 255.75 234.47 255.58 235.87 255.35 237.67 255.12 239.47 254.83 241.73 254.55 244.33 254.27 246.93 253.89 249.88 253.55 253.16 253.21 256.44 252.86 260.01 252.55 263.87 252.24 267.73 251.95 271.87 251.66 276.19 251.15 284.88 250.77 294.43 250.66 304.47 250.55 314.51 250.77 324.07 251.09 332.76 251.3 337.11 251.47 341.24 251.74 345.1 252.01 348.96 252.24 352.55 252.5 355.83 252.76 359.11 253.04 362.07 253.28 364.68 253.52 367.29 253.74 369.52 253.95 371.35 254.16 373.18 254.28 374.57 254.38 375.56 254.43 376.02 254.46 376.39 254.48 376.66 254.496 376.773 254.502 376.886 254.5 377Z" fill="#263238"/><path d="M250.13 300C250.171 299.731 250.238 299.466 250.33 299.21 250.5 298.65 250.73 297.9 251.01 296.96 251.61 294.96 252.5 292.19 253.63 288.72 255.89 281.78 259.13 272.24 262.92 261.77 266.71 251.3 270.33 241.89 273.04 235.11 274.39 231.72 275.5 228.99 276.29 227.11 276.68 226.21 276.98 225.49 277.21 224.95 277.312 224.697 277.429 224.45 277.56 224.21 277.502 224.478 277.419 224.739 277.31 224.99L276.48 227.19 273.38 235.25C270.76 242.06 267.2 251.49 263.38 261.95 259.56 272.41 256.3 281.95 253.95 288.85 252.79 292.26 251.85 295.05 251.17 297.03 250.85 297.96 250.6 298.7 250.4 299.25 250.333 299.508 250.242 299.759 250.13 300Z" fill="#263238"/><path d="M254 130.61C254.013 130.733 254.013 130.857 254 130.98 254 131.26 254 131.62 253.93 132.07 253.85 133.07 253.75 134.47 253.61 136.26 253.31 139.89 252.93 145.16 252.51 151.66 252.09 158.16 251.68 165.91 251.33 174.52 250.98 183.13 250.75 192.61 250.62 202.52 250.4 222.41 250.75 240.42 251.1 253.46 251.3 259.95 251.46 265.21 251.57 268.89 251.63 270.69 251.67 272.09 251.7 273.08 251.7 273.54 251.7 273.9 251.7 274.17 251.7 274.44 251.7 274.55 251.7 274.55 251.669 274.429 251.652 274.305 251.65 274.18 251.65 273.91 251.65 273.55 251.58 273.09 251.53 272.09 251.46 270.69 251.36 268.9 251.17 265.25 250.95 259.98 250.73 253.47 250.27 240.47 249.87 222.42 250.09 202.47 250.22 192.52 250.49 183.05 250.84 174.47 251.19 165.89 251.66 158.11 252.14 151.6 252.62 145.09 253.04 139.84 253.4 136.21L253.81 132.03 254 131C253.985 130.87 253.985 130.74 254 130.61Z" fill="#263238"/><g opacity="0.3"><path d="M197.69 175.66C202.82 175.44 207.81 174.06 212.76 172.66 208.269 171.807 203.711 171.355 199.14 171.31 196.815 171.344 194.501 171.636 192.24 172.18 195.972 170.115 199.054 167.05 201.14 163.33L201.23 163.16 209.03 155.72 208.92 155.57C206.74 157.15 204.59 158.79 202.47 160.47 203.963 156.579 204.371 152.355 203.65 148.25 202.171 151.361 199.906 154.032 197.08 156 197.787 154.133 198.302 152.2 198.62 150.23 199.059 147.676 198.67 145.048 197.51 142.73 193.87 149.5 188.06 155.1 185.51 162.35 185.36 162.78 185.22 163.22 185.1 163.66 184.36 157.49 182.96 151.39 182.89 145.18 182.265 149.148 182.007 153.165 182.12 157.18 181.77 156.72 181.4 156.28 181.03 155.83 182.69 163.003 184.563 170.12 186.65 177.18 187.649 177.014 188.671 177.062 189.65 177.32 188.774 177.296 187.897 177.349 187.03 177.48L186.73 177.53C187.523 180.197 188.363 182.863 189.25 185.53 190.502 185.33 191.778 185.33 193.03 185.53 193.552 185.612 194.062 185.756 194.55 185.96L197.77 187.96C204.68 193.39 212.24 205.96 212.24 205.96L205.54 190.56C204.94 189.72 202.11 182.88 196.43 179.36 195.851 178.564 195.149 177.865 194.35 177.29 193.005 176.343 191.444 175.748 189.81 175.56 192.44 175.59 195.08 175.77 197.69 175.66Z"/></g><path d="M143.06 181.08 161.59 184.63C163.68 185.03 166.06 185.63 167.02 187.54L165.69 188.34C162.26 186.55 158.29 185.48 154.61 184.29 151.3 183.22 142.22 181.5 143.06 181.08Z" fill="#263238"/><path d="M171.74 182C175.429 179.251 179.78 177.527 184.35 177 188.89 176.507 193.464 176.413 198.02 176.72 193.28 178.67 188.48 180.62 183.41 181.45 179.23 182.14 174.87 182.05 170.88 183.5Z" fill="#FF725E"/><g opacity="0.3"><path d="M171.74 182C175.429 179.251 179.78 177.527 184.35 177 188.89 176.507 193.464 176.413 198.02 176.72 193.28 178.67 188.48 180.62 183.41 181.45 179.23 182.14 174.87 182.05 170.88 183.5Z"/></g><path d="M192.31 160.37 184 170.47C182.474 172.393 180.842 174.23 179.11 175.97 176.37 178.61 173.11 180.82 171.04 183.97 171.579 182.615 172.358 181.368 173.34 180.29 179.164 173.173 185.469 166.464 192.21 160.21" fill="#263238"/><path d="M169.9 186.13C169.23 180.7 168.57 175.13 169.75 169.76 171.42 162.25 176.52 156 179.33 148.85 180.762 151.01 181.463 153.572 181.33 156.16 181.19 158.73 180.778 161.277 180.1 163.76 178.91 168.76 177.69 173.9 174.94 178.27 173.78 180.12 170.94 183.33 169.94 186.13" fill="#FF725E"/><g opacity="0.3"><path d="M169.9 186.13C169.23 180.7 168.57 175.13 169.75 169.76 171.42 162.25 176.52 156 179.33 148.85 180.762 151.01 181.463 153.572 181.33 156.16 181.19 158.73 180.778 161.277 180.1 163.76 178.91 168.76 177.69 173.9 174.94 178.27 173.78 180.12 170.94 183.33 169.94 186.13"/></g><path d="M173.44 181.87C174.417 180.953 175.474 180.126 176.6 179.4 185.191 173.901 189.067 163.353 186.08 153.6 184.732 157.583 182.16 161.038 178.73 163.47 178.73 163.47 176.25 163.62 174.18 168.74 172.11 173.86 169.7 185.4 169.7 185.4Z" fill="#FF725E"/><path d="M153.86 196.05C162.81 191.68 161.29 187.94 173.08 184.62 184.87 181.3 192 194.32 193 195.43L204 209.93C204 209.93 187.62 192.07 179.94 191.93 172.26 191.79 174.54 195.77 159.32 200.06 144.1 204.35 137.44 202.87 137.44 202.87 143.05 200.94 148.534 198.662 153.86 196.05Z" fill="#263238"/><path d="M176.64 184.35C174.24 183.576 171.61 184.267 169.9 186.12L169.9 186.12C170.265 184.377 171.62 183.01 173.36 182.63 175.738 182.118 178.221 182.473 180.36 183.63 183.455 185.341 185.337 188.635 185.24 192.17 185 197.1 180.86 200.86 178.96 205.41 179.62 202.34 180.29 199.27 180.96 196.2 181.32 194.72 181.548 193.211 181.64 191.69 181.753 190.059 181.355 188.433 180.5 187.04 179.574 185.713 178.205 184.76 176.64 184.35Z" fill="#FF725E"/><path d="M167.85 176.64C166.3 168.84 164.74 160.96 165.11 153.02 166.11 160.71 169.17 168.02 170.45 175.65 170.652 176.636 170.709 177.647 170.62 178.65 170.48 179.65 170.29 184.44 169.5 185.06L169.38 184.63C169.15 182.77 168.19 178.33 167.85 176.64Z" fill="#263238"/><path d="M157.66 153.4C158.397 156.224 159.784 158.837 161.71 161.03 163.33 162.86 165.3 164.37 166.89 166.23 168.48 168.09 169.69 170.49 169.36 172.91 169.13 174.65 168.14 176.2 167.7 177.91 167.009 180.761 167.912 183.763 170.06 185.76 170 185.76 170 186.21 169.8 186.11 164.19 183.54 159.89 177.93 157.51 172.19 155.035 166.161 155.089 159.389 157.66 153.4Z" fill="#FF725E"/><path d="M157.66 153.4C157.66 153.46 157.28 154.4 156.75 156.24 156.036 158.843 155.756 161.546 155.92 164.24 156.047 166.102 156.382 167.943 156.92 169.73 157.547 171.771 158.406 173.734 159.48 175.58 161.796 179.917 165.359 183.46 169.71 185.75L169.88 185.83C169.88 185.83 169.96 185.83 169.88 185.83 169.832 185.808 169.778 185.808 169.73 185.83 169.73 185.83 169.73 185.83 169.73 185.77L169.73 185.68 169.73 185.61C169.725 185.587 169.725 185.563 169.73 185.54L169.73 185.48C169.789 185.441 169.859 185.42 169.93 185.42L169.73 185.88C167.807 184.086 166.834 181.496 167.1 178.88 167.38 176.34 169.02 174.38 169.01 172.2 168.934 170.124 168.143 168.139 166.77 166.58 165.563 165.207 164.281 163.901 162.93 162.67 160.963 160.844 159.406 158.622 158.36 156.15 158.076 155.484 157.838 154.799 157.65 154.1 157.53 153.63 157.51 153.38 157.5 153.36 157.49 153.34 157.59 153.58 157.75 154.07 157.979 154.75 158.243 155.417 158.54 156.07 159.645 158.474 161.223 160.63 163.18 162.41 164.563 163.631 165.872 164.933 167.1 166.31 168.559 167.938 169.405 170.025 169.49 172.21 169.49 174.6 167.82 176.59 167.6 178.94 167.367 181.399 168.282 183.827 170.08 185.52L170.26 185.68 169.9 185.73C169.95 185.779 170.012 185.813 170.08 185.83 170.15 185.83 170.08 185.83 170.08 185.83L170.08 185.92C170.05 186.023 169.999 186.118 169.93 186.2 169.85 186.284 169.734 186.322 169.62 186.3 169.564 186.287 169.51 186.267 169.46 186.24L169.29 186.16C166.963 185.014 164.865 183.451 163.1 181.55 159.969 178.198 157.644 174.176 156.3 169.79 155.784 167.967 155.475 166.092 155.38 164.2 155.248 161.466 155.586 158.73 156.38 156.11 156.717 155.167 157.146 154.259 157.66 153.4Z" fill="#263238"/><path d="M170.53 173.34C170.45 173.102 170.42 172.85 170.44 172.6 170.42 171.931 170.464 171.261 170.57 170.6 170.93 168.395 171.704 166.278 172.85 164.36 173.996 162.453 175.336 160.67 176.85 159.04 177.424 158.324 178.078 157.677 178.8 157.11 178.308 157.881 177.75 158.607 177.13 159.28 175.731 160.96 174.464 162.745 173.34 164.62 172.228 166.495 171.428 168.538 170.97 170.67 170.6 172.28 170.62 173.34 170.53 173.34Z" fill="#263238"/><path d="M177.35 179.59C178.02 179.256 178.734 179.018 179.47 178.88 182.954 177.988 186.525 177.478 190.12 177.36 190.864 177.297 191.613 177.328 192.35 177.45 192.35 177.61 188.96 177.75 184.82 178.34 180.68 178.93 177.39 179.74 177.35 179.59Z" fill="#263238"/><path d="M242.77 262.14C242.646 261.934 242.542 261.716 242.46 261.49L241.66 259.59C241.48 259.18 241.31 258.72 241.08 258.23 240.85 257.74 240.56 257.23 240.26 256.66 239.67 255.54 239.05 254.23 238.19 252.88 233.833 245.787 228.981 239.01 223.67 232.6 217.54 225 211.67 218.43 207.32 213.69L202.19 208.12 200.79 206.6C200.616 206.435 200.462 206.25 200.33 206.05 200.525 206.192 200.706 206.353 200.87 206.53L202.34 207.98C203.6 209.25 205.41 211.1 207.59 213.44 211.97 218.12 217.93 224.66 224.07 232.27 229.405 238.696 234.233 245.527 238.51 252.7 239.36 254.06 239.95 255.39 240.51 256.53L241.29 258.12C241.51 258.62 241.67 259.12 241.83 259.52L242.54 261.46C242.637 261.679 242.714 261.907 242.77 262.14Z" fill="#263238"/><path d="M259.14 225.61C259.14 225.61 243.63 225.19 237.58 216.31 231.53 207.43 239.74 172.43 272.78 154.82L281.32 163.41 276.8 148.76C276.8 148.76 285.18 133.12 319.47 128.35 319.47 128.35 330.79 125.46 338.1 127.48 345.41 129.5 343.2 134.58 343.2 134.58 343.2 134.58 261.87 205.28 261.51 206.22 261.15 207.16 259.14 225.61 259.14 225.61Z" fill="#455A64"/><path d="M338.1 127.48C330.79 125.48 319.47 128.35 319.47 128.35 285.18 133.12 276.8 148.76 276.8 148.76L281.32 163.41 272.78 154.82C239.78 172.43 231.54 207.43 237.58 216.31 243.62 225.19 259.14 225.61 259.14 225.61 259.14 225.61 261.14 207.16 261.51 206.22 261.88 205.28 343.2 134.58 343.2 134.58 343.2 134.58 345.42 129.5 338.1 127.48Z" opacity="0.3"/><path d="M302.35 155.35C290.79 161.35 278.96 167.49 269.71 176.49 271.49 178.07 273.333 179.57 275.24 180.99 276.41 181.86 277.72 182.91 277.77 184.37 273.503 183.637 269.27 182.693 265.07 181.54 252.49 196.95 248.81 217.64 245.5 237.26 245.43 237.589 245.414 237.926 245.45 238.26 245.66 240.26 247.57 240.39 249.11 240.26 252.836 240.048 256.543 239.594 260.21 238.9L268.77 220.34C277.33 201.79 307.9 168.51 319.82 158.34 331.74 148.17 341.65 137.89 342.21 136.62 342.55 135.87 342.84 135.1 343.15 134.34Z" fill="#455A64"/><path d="M297.88 179.51C296.934 179.035 296.025 178.49 295.16 177.88 293.51 176.88 291.24 175.39 288.7 173.88 286.16 172.37 283.83 170.94 282.15 169.95 281.218 169.45 280.323 168.885 279.47 168.26 280.465 168.621 281.422 169.076 282.33 169.62 284.06 170.54 286.42 171.87 288.97 173.43 291.52 174.99 293.77 176.5 295.37 177.63 296.264 178.176 297.105 178.805 297.88 179.51Z" fill="#263238"/><path d="M301.76 172.48C300.23 171.746 298.78 170.858 297.43 169.83 295.997 168.936 294.657 167.901 293.43 166.74 294.963 167.477 296.418 168.368 297.77 169.4 299.204 170.284 300.542 171.316 301.76 172.48Z" fill="#263238"/><path d="M292.45 164.9C292.36 165.02 291.96 164.9 291.55 164.56 291.14 164.22 290.88 163.9 290.96 163.79 291.04 163.68 291.45 163.79 291.86 164.14 292.27 164.49 292.54 164.79 292.45 164.9Z" fill="#263238"/><path d="M310.3 165.07C308.808 163.815 307.405 162.459 306.1 161.01 304.672 159.689 303.336 158.272 302.1 156.77 303.702 157.893 305.175 159.191 306.49 160.64 307.914 161.977 309.192 163.462 310.3 165.07Z" fill="#263238"/><path d="M313.83 158.77C313.97 158.71 314.43 159.59 314.88 160.77 315.226 161.436 315.417 162.17 315.44 162.92 315.31 162.97 314.84 162.09 314.39 160.92 314.044 160.254 313.853 159.52 313.83 158.77Z" fill="#263238"/><path d="M278.83 179.11C279.536 179.417 280.206 179.799 280.83 180.25L285.46 183.2 290.11 186.13C290.785 186.489 291.416 186.925 291.99 187.43 291.265 187.182 290.573 186.846 289.93 186.43 288.69 185.76 287 184.78 285.18 183.63 283.36 182.48 281.76 181.38 280.62 180.55 279.965 180.148 279.363 179.664 278.83 179.11Z" fill="#263238"/><path d="M272 214.86C270.957 214.97 269.907 215 268.86 214.95 266.93 214.95 264.26 214.95 261.31 215.11 258.36 215.27 255.7 215.42 253.77 215.57 252.732 215.7 251.686 215.754 250.64 215.73 251.652 215.46 252.686 215.283 253.73 215.2 255.66 214.96 258.33 214.71 261.29 214.59 264.25 214.47 266.93 214.5 268.87 214.59 269.919 214.583 270.967 214.674 272 214.86Z" fill="#263238"/><path d="M274.25 211.15C273.378 211.048 272.515 210.878 271.67 210.64 270.09 210.28 267.9 209.81 265.47 209.4 263.04 208.99 260.82 208.7 259.21 208.52 258.334 208.478 257.463 208.355 256.61 208.15 257.484 208.055 258.366 208.055 259.24 208.15 263.477 208.411 267.675 209.125 271.76 210.28 272.62 210.475 273.455 210.767 274.25 211.15Z" fill="#263238"/><path d="M314.75 200.82 300.08 208.17C298.42 209 296.57 210.06 296.21 211.88L297.52 212.24C300.121 210.016 302.9 208.009 305.83 206.24 308.36 204.55 315.55 201 314.75 200.82Z" fill="#263238"/><path d="M291 208.34C287.264 206.927 283.221 206.527 279.28 207.18 275.359 207.84 271.505 208.844 267.76 210.18 272.176 210.854 276.655 211.025 281.11 210.69 284.78 210.28 288.4 209.18 292.11 209.45Z" fill="#FF725E"/><g opacity="0.3"><path d="M291 208.34C287.264 206.927 283.221 206.527 279.28 207.18 275.359 207.84 271.505 208.844 267.76 210.18 272.176 210.854 276.655 211.025 281.11 210.69 284.78 210.28 288.4 209.18 292.11 209.45Z"/></g><path d="M268.62 195.11 278 201.6C279.736 202.844 281.539 203.993 283.4 205.04 286.31 206.61 289.54 207.69 292.04 209.86 291.277 208.849 290.331 207.991 289.25 207.33 282.691 202.754 275.824 198.634 268.7 195" fill="#263238"/><path d="M293.47 211.38C292.75 206.68 291.97 201.83 289.73 197.64 286.56 191.75 280.82 187.72 276.73 182.4 276.053 184.548 276.078 186.856 276.8 188.99 277.522 191.108 278.467 193.142 279.62 195.06 281.8 198.98 284.03 202.98 287.36 205.99 288.77 207.26 291.9 209.29 293.43 211.38" fill="#FF725E"/><g opacity="0.3"><path d="M293.47 211.38C292.75 206.68 291.97 201.83 289.73 197.64 286.56 191.75 280.82 187.72 276.73 182.4 276.053 184.548 276.078 186.856 276.8 188.99 277.522 191.108 278.467 193.142 279.62 195.06 281.8 198.98 284.03 202.98 287.36 205.99 288.77 207.26 291.9 209.29 293.43 211.38"/></g><path d="M289.5 208.66C288.467 208.116 287.386 207.671 286.27 207.33 277.795 204.739 272.075 196.83 272.27 187.97 274.341 190.985 277.313 193.268 280.76 194.49 280.76 194.49 282.87 194.03 285.76 197.84 288.65 201.65 293.45 210.72 293.45 210.72Z" fill="#FF725E"/><path d="M309.25 215.91C300.72 214.36 301.11 210.91 290.45 210.91 279.79 210.91 276.89 223.5 276.31 224.67L271.82 238.81C271.82 238.81 279.99 220.6 286.38 218.66 292.77 216.72 291.81 220.6 305.56 220.6 319.31 220.6 324.56 217.79 324.56 217.79 319.423 217.479 314.31 216.851 309.25 215.91Z" fill="#455A64"/><path d="M287.41 211.48C289.238 210.271 291.6 210.228 293.47 211.37L293.47 211.37C292.739 210.011 291.291 209.194 289.75 209.27 287.649 209.401 285.66 210.264 284.13 211.71 281.952 213.882 281.155 217.08 282.06 220.02 283.43 224.09 287.78 226.26 290.45 229.62L286.61 222.37C285.954 221.219 285.405 220.011 284.97 218.76 284.495 217.421 284.446 215.968 284.83 214.6 285.303 213.292 286.214 212.19 287.41 211.48Z" fill="#FF725E"/><path d="M293 203C292.46 196.11 291.9 189.14 289.71 182.58 290.71 189.26 289.85 196.08 290.59 202.79 290.65 203.66 290.839 204.516 291.15 205.33 291.5 206.14 292.79 210.11 293.6 210.44L293.6 210C293.31 208.39 293.06 204.45 293 203Z" fill="#263238"/><path d="M296 181.09C296.049 183.628 295.501 186.142 294.4 188.43 293.48 190.35 292.19 192.08 291.3 194.01 290.276 195.909 290.095 198.151 290.8 200.19 291.41 201.59 292.6 202.65 293.37 203.97 294.62 206.199 294.57 208.928 293.24 211.11 293.29 211.11 293.4 211.46 293.55 211.34 297.64 207.86 299.91 202.15 300.55 196.78 301.195 191.152 299.556 185.5 296 181.09Z" fill="#FF725E"/><path d="M296 181.09C296.595 181.724 297.128 182.414 297.59 183.15 298.88 185.155 299.813 187.367 300.35 189.69 300.718 191.297 300.903 192.941 300.9 194.59 300.874 196.482 300.629 198.364 300.17 200.2 299.249 204.479 297.057 208.379 293.88 211.39L293.76 211.5C293.726 211.538 293.686 211.568 293.64 211.59 293.538 211.636 293.422 211.636 293.32 211.59 293.237 211.538 293.168 211.466 293.12 211.38L293.12 211.31 293.12 211.31 293.12 211.31 293.12 211.31C293.181 211.335 293.249 211.335 293.31 211.31L293 211C294.109 209.168 294.301 206.924 293.52 204.93 292.79 203.04 290.93 201.76 290.35 199.74 289.908 197.885 290.124 195.934 290.96 194.22 291.669 192.779 292.46 191.38 293.33 190.03 294.553 188.08 295.369 185.903 295.73 183.63 295.825 183.014 295.888 182.393 295.92 181.77 295.92 181.33 295.98 181.09 295.98 181.12 295.98 181.15 295.98 181.36 296.03 181.77 296.038 182.402 296.004 183.033 295.93 183.66 295.639 185.979 294.862 188.211 293.65 190.21 292.805 191.557 292.04 192.953 291.36 194.39 290.581 196.011 290.386 197.852 290.81 199.6 291.31 201.42 293.15 202.67 293.99 204.74 294.846 206.885 294.642 209.308 293.44 211.28L293.13 210.89C293.194 210.864 293.266 210.864 293.33 210.89L293.4 210.89 293.46 210.94 293.46 211 293.46 211.07 293.46 211.07C293.46 211.07 293.46 211.07 293.46 211.07 293.43 211.094 293.406 211.125 293.39 211.16 293.39 211.16 293.39 211.22 293.39 211.16L293.31 211.07 293.31 211.07 293.31 211.07 293.43 210.95C296.528 208.015 298.674 204.218 299.59 200.05 300.056 198.252 300.314 196.407 300.36 194.55 300.378 192.934 300.217 191.321 299.88 189.74 299.385 187.441 298.517 185.238 297.31 183.22 296.53 181.83 296 181.15 296 181.09Z" fill="#263238"/><path d="M289.92 200.82C289.84 200.82 289.6 199.96 288.92 198.67 288.029 197.002 286.878 195.486 285.51 194.18 284.123 192.879 282.643 191.683 281.08 190.6 280.406 190.18 279.774 189.698 279.19 189.16 279.934 189.454 280.639 189.837 281.29 190.3 282.935 191.307 284.47 192.484 285.87 193.81 287.288 195.147 288.439 196.742 289.26 198.51 289.641 199.224 289.866 200.012 289.92 200.82Z" fill="#263238"/><path d="M285.69 207.67C285.69 207.82 282.74 207.93 279.14 208.42 275.54 208.91 272.66 209.57 272.63 209.42 274.698 208.625 276.865 208.113 279.07 207.9 281.256 207.52 283.483 207.443 285.69 207.67Z" fill="#263238"/><path d="M238.74 351.57C238.982 351.823 239.188 352.109 239.35 352.42 239.72 352.98 240.21 353.83 240.78 354.89 242.24 357.671 243.426 360.589 244.32 363.6 245.214 366.615 245.817 369.709 246.12 372.84 246.22 374.04 246.27 375.01 246.27 375.68 246.313 376.029 246.313 376.381 246.27 376.73 246.18 376.73 246.1 375.25 245.79 372.88 244.997 366.693 243.207 360.675 240.49 355.06 239.41 352.9 238.67 351.61 238.74 351.57Z" fill="#263238"/><path d="M239.51 377.23C240.44 377.51 240.02 369.34 239.24 366.06 238.38 362.47 239.9 360.51 241.85 364.69 243.8 368.87 246 379 246 379Z" fill="#AE7461"/><path d="M262.53 367.15C259.884 369.561 258.341 372.951 258.26 376.53L262.21 376.53C262.895 372.711 264.296 369.057 266.34 365.76 265 365.4 263.58 366.2 262.53 367.15Z" fill="#AE7461"/><path d="M238.14 268.52C234.068 271.263 229.848 273.78 225.5 276.06 223.8 276.96 221.61 277.79 220.06 276.64 225.9 272.16 231.95 267.4 235.42 261 230.94 249.89 223.22 236.27 209.84 228.78 209.84 228.78 209.41 228.56 208.63 228.2 207.008 230.779 205.698 233.541 204.73 236.43 203.15 240.79 201.82 245.32 199.25 249.19 198.39 248.13 198.72 246.58 199.09 245.27 200.87 238.95 202.653 232.617 204.44 226.27 198.773 223.821 192.946 221.76 187 220.1 185.187 224.3 183.373 228.497 181.56 232.69 180.56 231.69 180.79 230.15 180.98 228.8 181.455 225.463 181.455 222.077 180.98 218.74 177.769 218.09 174.477 217.941 171.22 218.3 161.79 219.71 156.22 223.76 156.72 229.81 161.803 229.349 166.911 229.222 172.01 229.43 167.168 230.839 162.177 231.678 157.14 231.93 157.921 234.254 159.124 236.414 160.69 238.3 162.78 240.94 164.54 242.89 166.19 244.63 174.469 242.648 183.082 242.512 191.42 244.23 188.77 245.92 185.36 245.43 182.22 245.36 177.775 245.264 173.36 246.117 169.27 247.86 173.11 251.93 177.04 256.6 184.05 268.76 185.13 270.63 186.18 272.47 187.22 274.26 189.079 275.436 191.204 276.124 193.4 276.26 196.469 276.377 199.539 276.04 202.51 275.26 203.11 275.13 203.94 275.13 204.09 275.73 204.24 276.33 203.39 276.73 202.73 276.82 200.627 276.959 198.537 277.26 196.48 277.72 194.403 278.192 192.579 279.427 191.37 281.18L191.37 281.18C197.27 290.74 203.17 298.36 210.93 301.91 214.048 301.131 216.992 299.774 219.61 297.91 218.655 300.072 217.161 301.952 215.27 303.37 218.04 304.023 220.898 304.216 223.73 303.94 242.63 302.25 242.44 282.51 239.06 271.3 238.77 270.51 238.47 269.54 238.14 268.52Z" fill="#455A64"/><path d="M250.13 375.86C250.13 375.86 250.13 375.71 250.06 375.41 249.99 375.11 249.97 374.63 249.9 374.06L249.34 368.87C248.88 364.33 248.21 357.81 247.34 349.77 246.94 345.77 246.49 341.32 246.01 336.58 245.53 331.84 245.21 326.73 243.46 321.66 241.739 316.346 239.579 311.185 237 306.23 234.3 301.08 231.26 295.87 227.91 290.68 221.2 280.29 214.14 270.85 207.6 262.36 204.32 258.13 201.26 254.05 198.22 250.36 195.502 246.886 192.436 243.7 189.07 240.85L180.79 233.69C178.35 231.6 176.21 229.84 174.42 228.45 172.63 227.06 171.2 226.04 170.23 225.34L169.12 224.56C168.991 224.475 168.867 224.381 168.75 224.28L169.15 224.52 170.29 225.26C171.29 225.93 172.74 226.92 174.55 228.26 176.36 229.6 178.55 231.37 180.98 233.44L189.31 240.54C192.712 243.384 195.811 246.571 198.56 250.05 201.62 253.72 204.69 257.78 207.98 262.05 214.54 270.53 221.62 279.97 228.35 290.37 231.7 295.58 234.75 300.8 237.46 305.98 240.076 310.966 242.264 316.164 244 321.52L245.07 325.36C245.3 326.65 245.53 327.93 245.76 329.18 245.879 329.801 245.959 330.429 246 331.06L246.18 332.91C246.3 334.14 246.42 335.35 246.53 336.53 246.99 341.28 247.41 345.69 247.8 349.73 248.55 357.73 249.17 364.31 249.59 368.85 249.79 371.09 249.95 372.85 250.06 374.05 250.06 374.62 250.14 375.05 250.16 375.4 250.18 375.75 250.13 375.86 250.13 375.86Z" fill="#263238"/><path d="M188.85 264C189.863 263.753 190.898 263.612 191.94 263.58 194.45 263.402 196.97 263.402 199.48 263.58 201.989 263.754 204.482 264.109 206.94 264.64 207.967 264.814 208.972 265.095 209.94 265.48 208.904 265.387 207.875 265.227 206.86 265 204.97 264.68 202.35 264.31 199.43 264.1 196.51 263.89 193.87 263.9 191.95 263.96 190.918 264.036 189.883 264.049 188.85 264Z" fill="#263238"/><path d="M210.8 245C209.707 247.528 208.853 250.153 208.25 252.84 207.833 255.562 207.669 258.317 207.76 261.07 207.516 260.286 207.388 259.471 207.38 258.65 207.252 256.673 207.373 254.687 207.74 252.74 208.114 250.796 208.725 248.905 209.56 247.11 209.87 246.351 210.288 245.641 210.8 245Z" fill="#263238"/><path d="M214.65 239.33C214.77 239.42 214.45 240.03 213.94 240.7 213.43 241.37 212.94 241.83 212.8 241.7 212.66 241.57 213.01 241.01 213.52 240.34 214.03 239.67 214.54 239.25 214.65 239.33Z" fill="#263238"/><path d="M224 251.88C224.07 251.93 223.27 252.97 222.18 254.77 219.301 259.464 217.587 264.779 217.18 270.27 217.02 272.37 217.07 273.68 216.99 273.68 216.893 273.387 216.845 273.079 216.85 272.77 216.806 271.931 216.806 271.089 216.85 270.25 216.943 267.471 217.421 264.718 218.27 262.07 219.121 259.42 220.325 256.898 221.85 254.57 222.314 253.877 222.815 253.21 223.35 252.57 223.78 252.09 224 251.85 224 251.88Z" fill="#263238"/><path d="M224.11 282.82C222.985 282.847 221.86 282.803 220.74 282.69 218.67 282.57 215.8 282.47 212.63 282.53 209.46 282.59 206.63 282.78 204.53 282.97 203.416 283.121 202.294 283.204 201.17 283.22 201.448 283.092 201.745 283.015 202.05 282.99 202.62 282.88 203.45 282.74 204.49 282.6 209.89 281.907 215.35 281.813 220.77 282.32 221.77 282.42 222.65 282.53 223.22 282.62 223.525 282.641 223.825 282.708 224.11 282.82Z" fill="#263238"/><path d="M226.54 287.7C226.54 287.85 223.72 287.84 220.29 288.2 216.86 288.56 214.11 289.13 214.08 288.98 216.06 288.252 218.135 287.815 220.24 287.68 222.33 287.379 224.452 287.386 226.54 287.7Z" fill="#263238"/><path d="M233.08 279.89C233.21 279.98 231.76 282.05 230.53 284.89 229.3 287.73 228.77 290.2 228.61 290.17 228.722 288.262 229.215 286.395 230.06 284.68 230.743 282.901 231.77 281.274 233.08 279.89Z" fill="#263238"/><path d="M203.14 255.61C202.029 255.442 200.927 255.215 199.84 254.93 197.84 254.49 194.98 253.93 191.84 253.6 188.7 253.27 185.84 253.12 183.74 253.09 182.616 253.126 181.491 253.096 180.37 253 180.663 252.916 180.965 252.868 181.27 252.86 181.85 252.8 182.7 252.75 183.74 252.72 186.465 252.652 189.192 252.772 191.9 253.08 194.597 253.395 197.27 253.893 199.9 254.57 200.9 254.84 201.72 255.08 202.28 255.27 202.584 255.332 202.875 255.448 203.14 255.61Z" fill="#263238"/><path d="M195.11 228.27C195.068 229.131 194.954 229.988 194.77 230.83 194.456 232.871 194.249 234.927 194.15 236.99 194.046 239.055 194.046 241.125 194.15 243.19 194.245 244.043 194.282 244.902 194.26 245.76 193.99 244.938 193.832 244.084 193.79 243.22 193.329 239.065 193.524 234.864 194.37 230.77 194.514 229.91 194.762 229.07 195.11 228.27Z" fill="#263238"/><path d="M189.2 230.17C189.35 230.17 188.83 232.22 188.84 234.74 188.85 237.26 189.33 239.27 189.18 239.31 188.007 236.376 188.007 233.104 189.18 230.17Z" fill="#263238"/><path d="M181.57 236.75C180.829 236.896 180.075 236.97 179.32 236.97 177.93 237.05 176.01 237.17 173.89 237.36 171.77 237.55 169.89 237.76 168.48 237.92 167.738 238.056 166.984 238.116 166.23 238.1 166.936 237.823 167.676 237.641 168.43 237.56 169.8 237.3 171.72 237.02 173.85 236.84 175.98 236.66 177.91 236.59 179.31 236.6 180.067 236.553 180.826 236.604 181.57 236.75Z" fill="#263238"/><path d="M177.92 233.39C177.097 233.6 176.239 233.638 175.4 233.5 174.551 233.533 173.704 233.393 172.91 233.09 174.579 232.844 176.282 232.946 177.91 233.39Z" fill="#263238"/><path d="M282.24 250.68C286.77 247.25 295.16 242.34 304.95 238.15 306.403 237.516 308.094 238.18 308.728 239.632 308.843 239.896 308.918 240.175 308.95 240.46 309.36 244.1 309.88 246.46 310.49 251.04 311.21 245.57 311.49 244.04 312.04 238.53 312.217 236.518 313.573 234.805 315.49 234.17 331.76 228.86 349.4 227.17 359.25 237.37 359.87 238.01 350.2 242.03 338.53 249.66 337.718 250.191 336.737 250.398 335.78 250.24 323.71 248.17 323.18 249.65 321.29 250.35 319.68 250.94 327.48 250.91 333.29 252.1 326.849 257.158 320.936 262.853 315.64 269.1 313.79 271.27 312.11 273.36 310.58 275.37 309.109 276.06 307.541 276.522 305.93 276.74 303.071 277.004 300.201 277.117 297.33 277.08 296.9 277.08 296.33 277.18 296.24 277.58 296.04 278.16 296.82 278.58 297.43 278.67L302.9 279.67C304.322 279.938 305.257 281.308 304.99 282.73 304.923 283.085 304.783 283.422 304.58 283.72 295.21 297.53 291.58 305.62 276.97 304.72 276.97 304.72 267.4 305.06 264.1 293.19 260.8 281.32 269.08 260.6 282.24 250.68Z" fill="#455A64"/><path d="M250.5 381C250.5 381 250.5 380.83 250.5 380.49 250.5 380.15 250.57 379.63 250.63 378.98 250.76 377.66 250.96 375.71 251.25 373.2 251.83 368.2 252.75 360.94 254.2 352.02 255.843 341.584 258.013 331.237 260.7 321.02 262.304 314.972 264.367 309.055 266.87 303.32 269.638 297.195 272.951 291.331 276.77 285.8 278.71 282.95 280.63 280.14 282.68 277.47 284.689 274.838 286.828 272.308 289.09 269.89 293.382 265.3 298.033 261.06 303 257.21 307.432 253.723 312.111 250.561 317 247.75 321.337 245.388 325.887 243.439 330.59 241.93 337.404 239.806 344.381 238.244 351.45 237.26 353.95 236.89 355.9 236.64 357.22 236.49L358.72 236.32C358.89 236.311 359.06 236.311 359.23 236.32L358.73 236.41 357.23 236.63C355.91 236.82 353.97 237.1 351.48 237.5 344.442 238.566 337.498 240.178 330.71 242.32 326.038 243.847 321.519 245.805 317.21 248.17 312.323 250.984 307.644 254.146 303.21 257.63 298.305 261.472 293.708 265.692 289.46 270.25 287.25 272.62 285.13 275.15 283.09 277.8 281.05 280.45 279.09 283.27 277.21 286.11 273.405 291.614 270.098 297.448 267.33 303.54 264.838 309.252 262.776 315.141 261.16 321.16 258.03 332.67 256.09 343.25 254.56 352.16 253.03 361.07 252.09 368.3 251.45 373.31 251.14 375.79 250.9 377.73 250.73 379.07 250.66 379.72 250.59 380.22 250.55 380.57 250.539 380.714 250.523 380.857 250.5 381Z" fill="#263238"/><path d="M289.71 291.52C288.878 291.707 288.032 291.821 287.18 291.86 285.62 292.03 283.47 292.27 281.1 292.62 278.73 292.97 276.59 293.34 275.05 293.62 274.219 293.821 273.373 293.948 272.52 294 273.305 293.659 274.127 293.41 274.97 293.26 276.5 292.88 278.64 292.44 280.97 292.1 283.3 291.76 285.53 291.57 287.1 291.5 287.968 291.399 288.844 291.406 289.71 291.52Z" fill="#263238"/><path d="M293.17 287.24C292.265 287.361 291.353 287.411 290.44 287.39 288.75 287.46 286.44 287.59 283.87 287.88 281.3 288.17 279.02 288.59 277.37 288.88 276.483 289.106 275.581 289.267 274.67 289.36 275.506 288.974 276.386 288.692 277.29 288.52 279.435 287.986 281.613 287.592 283.81 287.34 286.007 287.079 288.218 286.965 290.43 287 291.35 286.971 292.269 287.052 293.17 287.24Z" fill="#263238"/><path d="M271.84 267C271.98 267 273.02 271.69 274.16 277.52 275.3 283.35 276.16 288.11 275.98 288.14 275.026 284.675 274.248 281.164 273.65 277.62 272.51 271.8 271.7 267 271.84 267Z" fill="#263238"/><path d="M281.32 254.5C281.4 254.5 281.15 255.86 280.89 258.06 280.209 263.795 280.425 269.601 281.53 275.27 281.95 277.45 282.3 278.78 282.22 278.8 282.057 278.52 281.939 278.216 281.87 277.9 281.67 277.3 281.43 276.43 281.17 275.35 279.852 269.664 279.635 263.778 280.53 258.01 280.7 256.91 280.88 256.01 281.03 255.42 281.078 255.1 281.175 254.789 281.32 254.5Z" fill="#263238"/><path d="M309.5 269.54C308.403 269.686 307.297 269.76 306.19 269.76 304.19 269.87 301.34 270.06 298.24 270.42 295.14 270.78 292.36 271.24 290.35 271.61 289.271 271.852 288.179 272.033 287.08 272.15 287.342 272.005 287.626 271.903 287.92 271.85 288.48 271.68 289.28 271.48 290.28 271.25 292.886 270.653 295.524 270.203 298.18 269.9 300.836 269.591 303.506 269.424 306.18 269.4 307.18 269.4 308.04 269.4 308.61 269.4 308.912 269.405 309.211 269.452 309.5 269.54Z" fill="#263238"/><path d="M315.42 263C314.413 262.913 313.411 262.77 312.42 262.57 307.676 261.883 302.851 261.984 298.14 262.87 297.17 263.1 296.189 263.28 295.2 263.41 296.113 262.994 297.073 262.692 298.06 262.51 302.792 261.398 307.706 261.296 312.48 262.21 313.489 262.352 314.476 262.617 315.42 263Z" fill="#263238"/><path d="M314.94 257.89C313.817 257.999 312.684 257.935 311.58 257.7 310.453 257.638 309.343 257.398 308.29 256.99 309.413 256.887 310.546 256.951 311.65 257.18 312.776 257.248 313.886 257.487 314.94 257.89Z" fill="#263238"/><path d="M298.23 243.44C298.033 246.861 297.655 250.269 297.1 253.65 296.32 259.26 295.58 263.8 295.44 263.78 295.3 263.76 295.81 259.19 296.58 253.58 297.35 247.97 298.09 243.42 298.23 243.44Z" fill="#263238"/><path d="M287.51 256.73C287.974 259.086 288.272 261.472 288.4 263.87 288.696 266.255 288.823 268.657 288.78 271.06 288.302 268.706 288.001 266.319 287.88 263.92 287.584 261.535 287.461 259.132 287.51 256.73Z" fill="#263238"/><path d="M325.19 234.1C325.24 234.17 324.62 234.7 323.88 235.75 322.936 237.153 322.176 238.673 321.62 240.27 320.94 242.14 320.36 243.87 319.79 245.07 319.537 245.742 319.168 246.365 318.7 246.91 318.902 246.226 319.153 245.558 319.45 244.91 319.93 243.7 320.45 241.97 321.13 240.08 321.694 238.437 322.521 236.897 323.58 235.52 323.999 234.928 324.55 234.441 325.19 234.1Z" fill="#263238"/><path d="M327.6 238.51C327.406 239.542 327.045 240.535 326.53 241.45 326.164 242.438 325.641 243.36 324.98 244.18 325.174 243.148 325.535 242.155 326.05 241.24 326.416 240.252 326.939 239.33 327.6 238.51Z" fill="#263238"/><path d="M340.67 242.82C339.13 242.922 337.584 242.851 336.06 242.61 334.518 242.544 332.988 242.302 331.5 241.89 334.582 241.846 337.659 242.158 340.67 242.82Z" fill="#263238"/><path d="M220.82 314.34 216.91 320.63 217.59 311.28C217.59 311.28 210.46 303.13 189.4 305 189.4 305 182.27 304.83 178.19 307 174.11 309.17 176.13 311.92 176.13 311.92 203.89 323.29 225.72 337.09 238.65 354.55 241.485 351.289 243.775 347.591 245.43 343.6 247.81 337.53 242.9 320.29 220.82 314.34Z" fill="#455A64"/><path d="M208.35 312.24C208.652 312.967 208.844 313.736 208.92 314.52 209.222 316.388 209.356 318.278 209.32 320.17 209.282 322.059 209.068 323.941 208.68 325.79 208.558 326.555 208.329 327.299 208 328 207.84 328 208.7 324.49 208.78 320.11 208.86 315.73 208.19 312.27 208.35 312.24Z" fill="#263238"/><path d="M200.23 312.26C202.205 316.078 203.061 320.377 202.7 324.66 202.54 324.66 202.52 321.81 201.83 318.39 201.14 314.97 200.08 312.32 200.23 312.26Z" fill="#263238"/><path d="M213.57 322C213.731 323.342 213.619 324.703 213.24 326 213.017 327.342 212.516 328.622 211.77 329.76 212.038 328.451 212.372 327.156 212.77 325.88 212.968 324.573 213.235 323.278 213.57 322Z" fill="#263238"/><path d="M229 322.65C228.758 323.381 228.422 324.077 228 324.72 227.053 326.328 226.015 327.881 224.89 329.37 223.776 330.866 222.573 332.296 221.29 333.65 220.789 334.247 220.214 334.778 219.58 335.23 219.997 334.579 220.476 333.969 221.01 333.41 221.93 332.32 223.17 330.8 224.48 329.06 225.79 327.32 226.89 325.71 227.68 324.53 228.063 323.865 228.504 323.236 229 322.65Z" fill="#263238"/><path d="M236 328.68C235.519 329.31 234.961 329.878 234.34 330.37 233.26 331.37 231.71 332.67 229.93 334.02 228.15 335.37 226.47 336.5 225.22 337.27 224.574 337.73 223.876 338.113 223.14 338.41 223.712 337.863 224.343 337.38 225.02 336.97 226.2 336.12 227.84 334.97 229.61 333.6 231.38 332.23 232.96 331.01 234.1 330.09 234.683 329.555 235.319 329.083 236 328.68Z" fill="#263238"/><path d="M237.59 336.64C236.07 337.808 234.385 338.745 232.59 339.42 230.872 340.255 229.038 340.828 227.15 341.12 227.1 340.97 229.52 340.18 232.38 338.94 235.24 337.7 237.51 336.51 237.59 336.64Z" fill="#263238"/><path d="M239.26 160C239.38 160.08 236.5 165.24 232.81 171.54 229.12 177.84 226.03 182.89 225.91 182.82 225.79 182.75 228.67 177.58 232.36 171.28 236.05 164.98 239.14 159.92 239.26 160Z" fill="#263238"/><path d="M244 151.51C244.11 151.6 243.43 152.51 242.48 153.58 241.53 154.65 240.68 155.41 240.57 155.31 240.944 154.529 241.459 153.823 242.09 153.23 243.05 152.18 243.9 151.41 244 151.51Z" fill="#263238"/><path d="M243.59 138.15C243.334 138.579 243.036 138.981 242.7 139.35L240.18 142.53C238.05 145.21 235.18 148.98 232.25 153.29 229.32 157.6 226.82 161.64 225.08 164.59 224.26 166.01 223.57 167.18 223.08 168.09 222.851 168.534 222.587 168.958 222.29 169.36 222.453 168.89 222.658 168.435 222.9 168 223.33 167.14 223.98 165.91 224.81 164.41 226.46 161.41 228.9 157.33 231.81 153 234.72 148.67 237.68 144.93 239.88 142.29 240.98 140.98 241.88 139.93 242.54 139.22 242.856 138.831 243.208 138.473 243.59 138.15Z" fill="#263238"/><path d="M214.3 150.45C213.83 150.406 213.366 150.322 212.91 150.2L209.17 149.4C206 148.73 201.61 147.89 196.72 147.19 191.83 146.49 187.38 146.06 184.16 145.81L180.33 145.53C179.859 145.523 179.39 145.47 178.93 145.37 179.399 145.328 179.871 145.328 180.34 145.37 181.25 145.37 182.56 145.37 184.18 145.48 187.42 145.64 191.89 146.01 196.8 146.71 201.71 147.41 206.09 148.32 209.25 149.08 210.82 149.46 212.09 149.79 212.96 150.08 213.418 150.158 213.867 150.281 214.3 150.45Z" fill="#263238"/><path d="M229.31 121.65C229.139 122.025 228.927 122.38 228.68 122.71L226.85 125.51C225.33 127.89 223.31 131.23 221.33 135.06 219.35 138.89 217.78 142.46 216.72 145.06 216.23 146.29 215.81 147.33 215.48 148.17 215.35 148.562 215.183 148.94 214.98 149.3 215.035 148.889 215.139 148.486 215.29 148.1 215.52 147.34 215.88 146.26 216.38 144.93 217.661 141.464 219.158 138.08 220.86 134.8 222.562 131.517 224.462 128.341 226.55 125.29 227.35 124.12 228.02 123.19 228.55 122.57 228.769 122.237 229.024 121.928 229.31 121.65Z" fill="#263238"/><path d="M222.58 109.6C222.389 109.992 222.154 110.361 221.88 110.7 221.39 111.39 220.71 112.4 219.88 113.7 217.747 116.968 215.843 120.38 214.18 123.91 212.534 127.431 211.137 131.063 210 134.78 209.56 136.22 209.23 137.38 209 138.2 208.915 138.627 208.78 139.043 208.6 139.44 208.626 139.005 208.693 138.573 208.8 138.15 208.96 137.32 209.24 136.15 209.63 134.68 211.733 127.084 215.115 119.901 219.63 113.44 220.49 112.21 221.22 111.23 221.76 110.58 222.001 110.228 222.276 109.899 222.58 109.6Z" fill="#263238"/><path d="M213.41 114.93C213.55 115.02 212.34 116.93 211.41 119.45 210.48 121.97 210.04 124.21 209.88 124.18 210.045 120.791 211.3 117.547 213.46 114.93Z" fill="#263238"/><path d="M176.33 114.77C176.661 114.72 176.999 114.72 177.33 114.77 177.96 114.77 178.87 114.83 179.99 114.94 182.911 115.214 185.806 115.712 188.65 116.43 191.497 117.148 194.285 118.08 196.99 119.22 197.99 119.66 198.85 120.05 199.41 120.34 199.711 120.464 199.994 120.629 200.25 120.83 200.25 120.91 198.95 120.35 196.85 119.56 194.128 118.531 191.35 117.656 188.53 116.94 185.704 116.227 182.839 115.68 179.95 115.3 177.71 115 176.33 114.85 176.33 114.77Z" fill="#263238"/><path d="M183.1 111C183.856 110.917 184.62 110.941 185.37 111.07 187.184 111.276 188.975 111.651 190.72 112.19 192.47 112.722 194.165 113.422 195.78 114.28 196.474 114.589 197.118 115.001 197.69 115.5 197.61 115.64 194.62 113.92 190.57 112.69 186.52 111.46 183.09 111.14 183.1 111Z" fill="#263238"/><path d="M199.18 91.89C199.049 92.7706 198.838 93.6375 198.55 94.48 198.12 96.07 197.55 98.27 197.07 100.73 196.59 103.19 196.24 105.43 196.07 107.06 196.006 107.947 195.865 108.827 195.65 109.69 195.559 108.801 195.576 107.905 195.7 107.02 196.059 102.722 196.915 98.4807 198.25 94.38 198.469 93.5187 198.78 92.6837 199.18 91.89Z" fill="#263238"/><path d="M188.74 133.08C189.749 133.093 190.755 133.21 191.74 133.43 194.141 133.859 196.517 134.413 198.86 135.09 201.202 135.773 203.505 136.581 205.76 137.51 206.713 137.85 207.628 138.289 208.49 138.82 207.515 138.554 206.559 138.22 205.63 137.82 203.87 137.19 201.44 136.36 198.71 135.56 195.98 134.76 193.48 134.17 191.66 133.77 190.672 133.605 189.697 133.375 188.74 133.08Z" fill="#263238"/><path d="M189 166.48C189.415 166.397 189.837 166.357 190.26 166.36 191.07 166.3 192.26 166.27 193.7 166.28 197.486 166.31 201.265 166.604 205.01 167.16 208.726 167.735 212.398 168.564 216 169.64 217.39 170.06 218.5 170.44 219.26 170.73 219.666 170.843 220.056 171.008 220.42 171.22 220.005 171.157 219.597 171.057 219.2 170.92 218.42 170.69 217.29 170.37 215.9 170 212.263 169.019 208.574 168.245 204.85 167.68 201.125 167.139 197.372 166.805 193.61 166.68 192.16 166.63 190.99 166.6 190.18 166.59 189.784 166.593 189.389 166.556 189 166.48Z" fill="#263238"/><path d="M200 179.19C200.329 179.125 200.665 179.098 201 179.11 201.64 179.11 202.58 179.11 203.74 179.11 206.751 179.201 209.755 179.448 212.74 179.85 215.738 180.251 218.712 180.812 221.65 181.53 222.77 181.81 223.65 182.06 224.3 182.25 224.632 182.319 224.952 182.437 225.25 182.6 225.25 182.67 223.83 182.35 221.56 181.89 219.29 181.43 216.16 180.89 212.67 180.36 209.18 179.83 205.99 179.63 203.67 179.48 202.442 179.45 201.217 179.353 200 179.19Z" fill="#263238"/><path d="M203.83 185.35C204.538 185.209 205.263 185.179 205.98 185.26 207.709 185.325 209.431 185.522 211.13 185.85 212.828 186.182 214.499 186.64 216.13 187.22 216.839 187.41 217.514 187.71 218.13 188.11 218.08 188.26 215.02 187.11 211.08 186.36 207.14 185.61 203.83 185.51 203.83 185.35Z" fill="#263238"/><path d="M198.72 196.9C199.253 196.908 199.785 196.958 200.31 197.05 201.31 197.17 202.79 197.41 204.59 197.76 213.982 199.617 223.007 202.995 231.31 207.76 232.9 208.68 234.16 209.46 235.01 210.04 235.466 210.312 235.898 210.623 236.3 210.97 235.812 210.759 235.343 210.504 234.9 210.21 234.02 209.69 232.74 208.96 231.13 208.08 222.772 203.51 213.81 200.143 204.51 198.08 202.73 197.69 201.28 197.39 200.28 197.21 199.752 197.154 199.23 197.05 198.72 196.9Z" fill="#263238"/><rect x="182.43" y="376.1" width="138.09" height="21.26" fill="#FF725E"/><path d="M194.56 397.36 209.25 472.43 295.4 472.43 308.39 397.36 194.56 397.36Z" fill="#FF725E"/><path d="M194.56 397.36 195.76 403.47 307.33 403.47 308.39 397.36Z" opacity="0.3"/><path d="M251.66 99.89 227.88 71.56C237.827 80.1703 246.355 90.2945 253.15 101.56" fill="#263238"/><path d="M262.67 74.76C260.499 80.6248 260.202 87.0191 261.82 93.06L263.29 104.47C265.927 94.711 265.712 84.4005 262.67 74.76Z" fill="#FF725E"/><g opacity="0.3"><path d="M262.67 74.76C260.499 80.6248 260.202 87.0191 261.82 93.06L263.29 104.47C265.927 94.711 265.712 84.4005 262.67 74.76Z"/></g><path d="M231.69 79C233.69 82.65 236.51 85.59 239.33 88.65 242.15 91.71 245.41 93.87 248.39 96.55 253.94 101.55 258.06 107.89 262.11 114.16L260.51 115.01C259.43 111.58 256.31 109.2 253.17 107.44 250.03 105.68 246.6 104.24 244.07 101.67 242.188 99.556 240.65 97.1603 239.51 94.57L231.69 79Z" fill="#FF725E"/><g opacity="0.3"><path d="M231.69 79C233.69 82.65 236.51 85.59 239.33 88.65 242.15 91.71 245.41 93.87 248.39 96.55 253.94 101.55 258.06 107.89 262.11 114.16L260.51 115.01C259.43 111.58 256.31 109.2 253.17 107.44 250.03 105.68 246.6 104.24 244.07 101.67 242.188 99.556 240.65 97.1603 239.51 94.57L231.69 79Z"/></g><path d="M262.77 113.87C262.77 110.7 260.38 108.12 258.53 105.54 255.437 101.006 253.263 95.9101 252.13 90.54 251.008 85.1728 250.24 79.7378 249.83 74.27L260.49 88.9C262.23 91.3 264.02 93.84 264.36 96.78 264.67 99.57 263.62 102.32 263.12 105.08 262.62 107.84 262.89 111.08 265.12 112.84" fill="#FF725E"/><path d="M251.87 89.35C251.87 89.35 257.35 93.44 259.23 96.82 261.11 100.2 263.77 113.12 263.77 113.12L262.77 113.87C262.533 112.244 262.008 110.672 261.22 109.23 260.033 107.398 258.626 105.719 257.03 104.23 255 102.78 252.87 94 252.47 91.9 252.339 91.0352 252.139 90.1824 251.87 89.35Z" opacity="0.3"/><path d="M258.72 103.58C258.01 101.52 257.41 99.41 256.72 97.34 255.781 94.5 254.095 91.9648 251.84 90 250.71 89 249.54 88.08 248.38 87.15L237.05 78C237.503 79.3757 238.065 80.7132 238.73 82L246.05 96.94C247.35 99.61 248.73 102.37 251.05 104.25 253.05 105.9 255.62 106.73 257.85 108.08 260.08 109.43 262.12 111.68 261.96 114.28L264.05 113.16C261.586 110.4 259.766 107.128 258.72 103.58Z" fill="#FF725E"/><path d="M262.75 114.53C268.61 100.34 268.91 84.53 272.8 69.66 273.8 71.17 273.1 73.17 272.56 74.91 270.85 80.43 271.45 86.37 270.74 92.1 269.74 99.99 266.34 107.34 262.96 114.54" fill="#263238"/><path d="M262.83 113.73C261.129 111.468 258.844 109.711 256.22 108.65 254.11 108.033 251.928 107.697 249.73 107.65 243.169 107.238 236.588 107.262 230.03 107.72 229.815 107.709 229.607 107.793 229.46 107.95 229.25 108.25 229.59 108.62 229.89 108.82 233.908 111.522 238.619 113.008 243.46 113.1 246.81 113.16 250.12 112.55 253.46 112.36 256.8 112.17 260.3 112.43 263.21 114.08Z" fill="#FF725E"/><path d="M268.64 106.56C263.908 110.019 259.973 114.452 257.1 119.56 253.57 126.28 253.1 139.78 252.38 147.34 254.51 139.4 257.03 131.42 261.68 124.64 268.32 114.96 279.04 108.08 283.51 97.22 278.336 99.9737 273.367 103.095 268.64 106.56Z" fill="#455A64"/><path d="M252.14 81C252.403 81.2449 252.632 81.524 252.82 81.83 253.24 82.38 253.82 83.18 254.54 84.19 255.26 85.2 256.05 86.42 257.08 87.66 258.11 88.9 259.34 90.21 260.49 91.72 261.615 93.1373 262.435 94.7713 262.9 96.52 263.18 97.9684 263.135 99.4608 262.77 100.89 262.52 102.01 262.3 102.96 262.13 103.74 262.07 104.082 261.977 104.417 261.85 104.74 261.819 104.378 261.846 104.013 261.93 103.66 262.01 102.98 262.2 101.99 262.41 100.79 262.707 99.4058 262.707 97.9742 262.41 96.59 261.938 94.9195 261.139 93.3593 260.06 92 258.93 90.52 257.7 89.21 256.69 87.92 255.68 86.63 254.9 85.37 254.21 84.35 253.52 83.33 253 82.56 252.66 82 252.44 81.6929 252.265 81.3562 252.14 81Z" fill="#263238"/><path d="M321 397.36C321 397.5 289.92 397.62 251.59 397.62 213.26 397.62 182.18 397.5 182.18 397.36 182.18 397.22 213.25 397.1 251.59 397.1 289.93 397.1 321 397.21 321 397.36Z" fill="#263238"/></g></svg>